<svg width="51" height="51" viewBox="0 0 51 51" fill="none" xmlns="http://www.w3.org/2000/svg">
<rect x="0.347656" y="0.5" width="50" height="50" rx="25" fill="white"/>
<g clip-path="url(#clip0_60_162)">
<path d="M32.4171 23.8939C32.4056 23.9872 32.4097 24.1004 32.4122 24.1698C32.4124 24.1756 32.4126 24.1811 32.4128 24.1862L32.4128 24.1862C32.4184 24.3515 32.4181 24.4963 32.3754 24.6081C32.3577 24.6546 32.3366 24.6828 32.3128 24.7025C32.2898 24.7216 32.2408 24.7523 32.1361 24.7682L32.1359 24.7682C32.0859 24.7758 32.042 24.779 32.0053 24.779H32.0053C31.8911 24.779 31.8372 24.7534 31.8128 24.7378C31.7872 24.7213 31.7614 24.6944 31.7364 24.6438C31.6768 24.5231 31.6612 24.3575 31.6502 24.176L31.6502 24.1758C31.6499 24.1719 31.6497 24.1679 31.6495 24.1639C31.6446 24.0833 31.6382 23.9779 31.6228 23.8852L31.6228 23.8851C31.3842 22.4473 31.0083 21.3831 30.2599 20.6024C29.513 19.8231 28.456 19.3901 27.0092 19.0668C26.9214 19.0471 26.8227 19.0335 26.743 19.0225C26.7382 19.0218 26.7334 19.0212 26.7288 19.0205L26.7282 19.0205C26.5698 18.9988 26.4444 18.9802 26.3349 18.9426C26.2325 18.9074 26.1769 18.8661 26.1425 18.8194L32.4171 23.8939ZM32.4171 23.8939C32.4355 21.1617 30.0865 18.6028 27.142 18.249C27.0688 18.2403 26.9917 18.2275 26.9234 18.2162L26.9177 18.2153L26.9176 18.2153C26.7555 18.1884 26.6309 18.1689 26.5118 18.1689C26.3103 18.1689 26.2349 18.2331 26.1991 18.2738C26.1482 18.3316 26.1158 18.4185 26.1004 18.5103L26.1004 18.5103C26.0714 18.6826 26.1059 18.7696 26.1425 18.8193L32.4171 23.8939ZM32.4187 23.8818L32.4183 23.8847L32.4187 23.8818Z" stroke="#4E31AA" stroke-width="0.921577"/>
<path d="M26.6292 16.2597L26.6294 16.2598C29.0152 16.6267 30.8251 17.3855 32.1126 18.712C33.3999 20.0382 34.1086 21.8738 34.4125 24.2773L34.4125 24.2774C34.4259 24.383 34.4277 24.5025 34.4292 24.596L34.4294 24.6079C34.4326 24.8057 34.4414 24.9933 34.5034 25.1326C34.5297 25.1916 34.559 25.2252 34.5903 25.2466C34.6205 25.2672 34.6835 25.2978 34.8135 25.3006L34.834 25.3008C34.9928 25.3004 35.0656 25.2555 35.1065 25.2126L35.1066 25.2126C35.147 25.1703 35.1795 25.1056 35.1965 24.9916C35.2145 24.8706 35.2098 24.7363 35.2023 24.5698L35.2023 24.5696L35.2019 24.5595L26.6292 16.2597ZM26.6292 16.2597C26.5438 16.2466 26.4477 16.2397 26.3702 16.2341M26.6292 16.2597L26.3702 16.2341M35.1959 24.3269C35.1959 24.3268 35.1959 24.3267 35.1959 24.3266L35.6566 24.3328M35.1959 24.3269L35.1959 24.3271L35.6566 24.3328M35.1959 24.3269C35.2519 19.7783 31.2985 15.6336 26.7554 15.4741M35.1959 24.3269L26.7554 15.4741M35.6566 24.3328C35.6558 24.396 35.659 24.4681 35.6625 24.5447L35.6626 24.549L35.6566 24.3328ZM26.7554 15.4741C26.7227 15.4782 26.6866 15.4802 26.6455 15.4802C26.5836 15.4802 26.513 15.4754 26.4586 15.4717C26.4541 15.4714 26.4496 15.4711 26.4453 15.4708L26.4451 15.4708C26.3671 15.4655 26.2971 15.4608 26.2286 15.4608C25.9708 15.4608 25.8875 15.5442 25.8517 15.5911C25.7972 15.6627 25.7676 15.7732 25.7607 15.8932L26.7554 15.4741ZM26.3702 16.2341C26.3677 16.234 26.3652 16.2338 26.3627 16.2336M26.3702 16.2341L26.3627 16.2336M26.3627 16.2336L26.3296 16.6932M26.3627 16.2336L26.3296 16.6932M26.3296 16.6932L26.3631 16.2336M26.3296 16.6932L26.3631 16.2336M26.3631 16.2336C26.1745 16.2199 25.9994 16.2015 25.8751 16.1392M26.3631 16.2336L25.8751 16.1392M25.8751 16.1392C25.8232 16.1132 25.8002 16.0885 25.7881 16.0686M25.8751 16.1392L25.7881 16.0686M25.7881 16.0686C25.7772 16.0507 25.7544 16.0033 25.7607 15.8933L25.7881 16.0686Z" stroke="#4E31AA" stroke-width="0.921577"/>
<path d="M33.7287 30.4042C33.6297 30.3285 33.5272 30.2502 33.4313 30.1729C32.9226 29.7636 32.3814 29.3862 31.858 29.0212C31.7494 28.9456 31.6407 28.8698 31.5325 28.7939C30.862 28.3229 30.2592 28.0941 29.6898 28.0941C28.9227 28.0941 28.254 28.5179 27.702 29.3536C27.4575 29.7241 27.1608 29.9043 26.7952 29.9043C26.579 29.9043 26.3333 29.8426 26.0651 29.7208C23.901 28.7395 22.3556 27.2348 21.4719 25.2486C21.0447 24.2886 21.1832 23.6612 21.935 23.1505C22.362 22.8607 23.1566 22.3213 23.1003 21.2883C23.0366 20.1152 20.4483 16.5856 19.3577 16.1847C18.896 16.0149 18.4109 16.0133 17.9133 16.1808C16.6596 16.6022 15.7599 17.3424 15.3113 18.321C14.8778 19.2667 14.8974 20.3771 15.3679 21.5321C16.7283 24.8717 18.6408 27.7834 21.0526 30.1861C23.4134 32.5382 26.315 34.4648 29.6767 35.9124C29.9797 36.0427 30.2975 36.1139 30.5296 36.1657C30.6087 36.1835 30.677 36.1987 30.7268 36.2123C30.7541 36.2198 30.7823 36.2238 30.8106 36.2241L30.8372 36.2242C30.8372 36.2242 30.8372 36.2242 30.8373 36.2242C32.4184 36.2242 34.3169 34.7794 34.9 33.1322C35.4108 31.6899 34.4782 30.977 33.7287 30.4042Z" stroke="#4E31AA" stroke-width="1.6756"/>
<path d="M26.4312 21.2526L26.4312 21.2527C26.3699 21.4303 26.3977 21.5141 26.4239 21.5577L26.4312 21.2526ZM26.4312 21.2526C26.4786 21.115 26.555 21.0587 26.6483 21.0231M26.4312 21.2526L26.6483 21.0231M28.9831 24.0074L28.9831 24.0076C29.016 24.3377 29.208 24.4548 29.3561 24.4548C29.3706 24.4548 29.3852 24.4539 29.3991 24.4523L29.4003 24.4521C29.5519 24.4341 29.6163 24.3811 29.6572 24.3192C29.711 24.2377 29.765 24.0741 29.755 23.772L29.7547 23.7618L29.7548 23.7515C29.7614 23.1723 29.4503 22.4526 28.8599 21.8529L28.9831 24.0074ZM28.9831 24.0074C28.922 23.397 28.7328 22.8717 28.3619 22.4724C27.9902 22.0722 27.4828 21.849 26.8833 21.7528M28.9831 24.0074L26.8833 21.7528M26.6483 21.0231C26.7645 20.9788 26.8979 20.9721 27.0387 20.9685M26.6483 21.0231L27.0387 20.9685M27.0387 20.9685C27.593 20.9552 28.2661 21.2497 28.8599 21.8528L27.0387 20.9685ZM26.8833 21.7528C26.7494 21.7312 26.6442 21.7056 26.5626 21.6687M26.8833 21.7528L26.5626 21.6687M26.5626 21.6687C26.487 21.6345 26.448 21.598 26.4239 21.5578L26.5626 21.6687Z" stroke="#4E31AA" stroke-width="0.921577"/>
</g>
<defs>
<clipPath id="clip0_60_162">
<rect width="22.3413" height="22.3413" fill="white" transform="translate(14.1777 14.3293)"/>
</clipPath>
</defs>
</svg>
