<svg width="50" height="50" viewBox="0 0 50 50" fill="none" xmlns="http://www.w3.org/2000/svg">
<path fill-rule="evenodd" clip-rule="evenodd" d="M24.7073 24.707C20.0198 24.707 16.1136 19.8242 15.6253 13.3789C15.137 8.39844 15.8206 6.54297 15.9182 6.25C17.4807 2.53906 21.1917 0 25.2932 0C27.93 0 30.2737 1.07422 31.8362 2.92969C33.3011 4.58984 34.7659 7.8125 33.887 13.2812C33.7893 14.1602 33.6917 15.0391 33.4964 15.8203C33.3987 16.1133 33.2034 16.3086 33.0081 16.3086C30.762 17.0898 29.2972 19.4336 29.2972 22.168V22.6562C29.2972 22.9492 29.1995 23.1445 29.0042 23.2422C27.7347 24.2188 26.1722 24.707 24.7073 24.707ZM17.1878 6.83594C17.1878 6.93359 16.5042 8.59375 16.9925 13.2812C17.1878 16.0156 18.1643 18.6523 19.6292 20.5078C20.9964 22.3633 22.8518 23.3398 24.7073 23.3398C25.8792 23.3398 26.8557 23.0469 27.93 22.3633C27.93 22.3633 27.93 22.2656 27.93 22.168C27.93 19.043 29.6878 16.2109 32.2268 15.2344C32.3245 14.5508 32.4222 13.7695 32.5198 13.0859C33.2034 9.08203 32.6175 5.95703 30.762 3.80859C29.4925 2.24609 27.4417 1.36719 25.2932 1.36719C21.68 1.36719 18.4573 3.51562 17.1878 6.73828V6.83594Z" fill="#4E31AA"/>
<path fill-rule="evenodd" clip-rule="evenodd" d="M18.3594 13.965H16.3086C15.918 13.965 15.625 13.672 15.625 13.2814C15.625 12.8908 15.918 12.5978 16.3086 12.5978H17.6758C17.6758 10.9376 18.457 9.57044 19.8242 8.49622C21.0938 7.51966 22.7539 6.83607 24.4141 6.25013C27.4414 5.07825 29.2969 4.297 29.1016 2.05091C29.0039 1.75794 29.2969 1.36732 29.6875 1.36732C30.0781 1.26966 30.3711 1.56263 30.4688 1.95325C30.5664 3.51575 30.0781 4.68763 28.8086 5.66419C27.7344 6.44544 26.3672 6.93372 24.9023 7.51966C21.7773 8.69153 18.8477 9.76575 19.043 13.2814C19.043 13.4767 18.9453 13.5743 18.8477 13.7697C18.6523 13.8673 18.5547 13.965 18.3594 13.965Z" fill="#4E31AA"/>
<path fill-rule="evenodd" clip-rule="evenodd" d="M33.2025 14.0626H31.2494C31.0541 14.0626 30.8588 13.9649 30.7611 13.8672C30.5658 13.7696 30.5658 13.5743 30.5658 13.379C30.7611 10.3516 28.3197 6.44536 27.7338 5.56646C27.5385 5.27349 27.5385 4.88286 27.8314 4.58989C28.2221 4.39458 28.6127 4.49224 28.808 4.78521C29.4916 5.66411 31.8353 9.47271 31.933 12.6954H33.2025C33.5932 12.6954 33.8861 12.9883 33.8861 13.379C33.8861 13.7696 33.5932 14.0626 33.2025 14.0626Z" fill="#4E31AA"/>
<path fill-rule="evenodd" clip-rule="evenodd" d="M27.3433 50C25.4878 50 23.5347 49.707 21.5816 49.1211C21.4839 49.1211 21.2886 49.1211 21.1909 49.2188C18.9448 49.4141 17.187 49.5117 16.1128 49.5117H16.0152C15.9175 49.5117 15.9175 49.5117 15.8198 49.5117C12.9878 49.5117 9.96047 47.0703 9.27687 44.3359C9.08156 43.2617 8.88625 42.2852 8.59328 41.2109C8.105 39.1602 7.61672 37.0117 7.22609 34.8633C6.73781 32.3242 7.03078 30.3711 8.00734 29.1016C9.17922 27.6367 10.8394 27.4414 11.0347 27.4414C16.9917 27.1484 18.8472 25.293 19.1402 24.8047V21.875C19.1402 21.4844 19.5308 21.1914 19.8237 21.1914C20.2144 21.1914 20.5073 21.4844 20.5073 21.875V25V25.293C20.312 25.5859 18.7495 28.418 11.1323 28.8086C11.0347 28.8086 9.86281 28.9062 9.08156 29.8828C8.30031 30.957 8.105 32.5195 8.59328 34.668C8.98391 36.7188 9.47219 38.8672 9.96047 40.918C10.1558 41.9922 10.4487 42.9688 10.6441 44.043C11.1323 46.1914 13.6714 48.2422 15.9175 48.1445H16.0152C17.0894 48.1445 18.8472 48.0469 20.9956 47.8516C21.1909 47.8516 21.2886 47.7539 21.3862 47.7539H21.4839H21.5816C28.4175 46.875 36.6206 44.2383 37.1089 36.3281V27.6367C37.1089 27.4414 37.2066 27.2461 37.3042 27.1484C37.4995 27.0508 37.6948 26.9531 37.8902 26.9531C41.0152 27.2461 42.9683 29.6875 43.0659 33.2031C43.0659 39.0625 40.9175 43.9453 36.9136 46.9727C34.8628 48.4375 32.5191 49.4141 29.8823 49.8047C29.1011 49.9023 28.2222 50 27.3433 50ZM25.3902 48.5352C29.3941 48.9258 33.2027 48.0469 36.0347 45.8008C39.7456 43.0664 41.6987 38.5742 41.6987 33.2031C41.6011 31.25 40.8198 29.1016 38.4761 28.5156V36.3281V36.4258C38.0855 42.5781 33.5933 46.6797 25.3902 48.5352Z" fill="#4E31AA"/>
<path fill-rule="evenodd" clip-rule="evenodd" d="M23.5351 44.6289C22.4608 44.6289 21.4843 44.5312 20.6054 44.3359C18.6522 43.8477 17.0897 42.9688 16.0155 41.6016C14.8437 40.1367 14.2577 38.0859 14.453 35.7422C14.453 35.3516 14.746 35.0586 15.1366 35.0586C15.5272 35.0586 15.8202 35.4492 15.8202 35.7422C15.5272 40.7227 18.4569 42.4805 20.8983 42.9688C21.7772 43.1641 22.6562 43.2617 23.5351 43.2617C29.0038 43.2617 35.4491 40.0391 37.2069 35.9375C37.3046 35.5469 37.6952 35.3516 38.0858 35.5469C38.3788 35.6445 38.5741 36.1328 38.4765 36.4258C37.3046 39.0625 34.5702 41.5039 30.9569 43.0664C28.5155 44.1406 25.8788 44.6289 23.5351 44.6289Z" fill="#FF5677"/>
<path fill-rule="evenodd" clip-rule="evenodd" d="M34.375 29.5898C30.7617 29.5898 27.9297 26.2695 27.9297 22.168C27.9297 18.0664 30.7617 14.7461 34.375 14.7461C37.9883 14.7461 40.918 18.0664 40.918 22.168C40.918 26.2695 37.9883 29.5898 34.375 29.5898ZM34.375 16.1133C31.543 16.1133 29.2969 18.8477 29.2969 22.168C29.2969 25.4883 31.543 28.2227 34.375 28.2227C37.207 28.2227 39.5508 25.4883 39.5508 22.168C39.5508 18.8477 37.207 16.1133 34.375 16.1133Z" fill="#FF5677"/>
<path fill-rule="evenodd" clip-rule="evenodd" d="M32.0298 31.1524C31.3462 31.1524 30.6626 31.0547 29.7837 30.7618C29.4907 30.5665 29.1001 30.4688 28.8071 30.3711C25.9751 29.4922 23.0454 28.6133 19.2368 22.168C19.0415 21.8751 19.2368 21.4844 19.5298 21.2891C19.8228 21.0938 20.311 21.1915 20.4087 21.4844C23.9243 27.4415 26.6587 28.3204 29.1978 29.1016C29.4907 29.1993 29.8814 29.2969 30.272 29.3946C31.4439 29.8829 32.3228 29.8829 32.9087 29.5899C33.2017 29.4922 33.397 29.1993 33.4946 28.8086C33.5923 28.418 33.8853 28.2227 34.2759 28.2227C34.6665 28.3204 34.8618 28.711 34.7642 29.1016C34.5689 29.8829 34.1782 30.4688 33.4946 30.8594C33.104 31.0547 32.6157 31.1524 32.0298 31.1524Z" fill="#FF5677"/>
<path fill-rule="evenodd" clip-rule="evenodd" d="M25.6837 44.5313C25.3907 44.5313 25.0977 44.3359 25.0001 44.043C24.2188 41.6992 24.5118 39.1602 25.879 36.6211C26.4649 35.6445 26.9532 34.9609 27.4415 34.375C25.879 33.8867 24.3165 32.7149 22.8516 31.0547C21.3868 29.4922 20.1173 27.3438 19.2383 25.293C19.1407 24.9023 19.2383 24.5117 19.629 24.4141C19.9219 24.2188 20.4102 24.4141 20.5079 24.707C22.0704 28.5156 25.293 32.8125 28.8087 33.3008C29.1016 33.3008 29.2969 33.4961 29.3946 33.7891C29.4923 34.082 29.3946 34.2774 29.1993 34.4727C29.1993 34.5703 24.6094 38.7695 26.2696 43.5547C26.4649 43.9453 26.2696 44.3359 25.879 44.4336C25.7813 44.5313 25.7813 44.5313 25.6837 44.5313Z" fill="#FF5677"/>
<path fill-rule="evenodd" clip-rule="evenodd" d="M15.917 28.125C15.7217 28.125 15.5264 28.0273 15.4287 27.832C15.1357 27.6367 15.1357 27.1484 15.4287 26.8555C16.3076 26.0742 16.7959 21.4844 16.9912 18.5547C16.9912 18.1641 17.2842 17.8711 17.6748 17.8711C18.0654 17.8711 18.3584 18.2617 18.3584 18.5547C18.3584 18.6523 18.2607 20.5078 17.9678 22.5586C17.4795 26.4648 16.7959 27.4414 16.4053 27.9297C16.21 28.0273 16.1123 28.125 15.917 28.125Z" fill="#4E31AA"/>
</svg>
