<svg width="50" height="50" viewBox="0 0 50 50" fill="none" xmlns="http://www.w3.org/2000/svg">
<g clip-path="url(#clip0_1_976)">
<path d="M50 17.742V17.2549L33.6573 8.65332L33.2403 9.17348C33.2121 9.21139 30.1968 12.9033 25 12.9033C19.8323 12.9033 16.7871 9.20977 16.7589 9.17348L16.3419 8.65332L0 17.2549V17.742C0 25.0928 3.19677 31.9872 8.77742 36.7525L7.46452 41.1291H0V42.742H8.66452L10.7669 35.7315L13.021 50.0001H15.1242L18.0984 39.5936L19.5145 45.9678H50V44.3549H20.8081L20.3524 42.3041C21.8782 42.5912 23.4355 42.742 25 42.742C38.7855 42.742 50 31.5275 50 17.742ZM14.2242 47.2807L13.025 39.6856C13.9871 40.2114 14.9798 40.6791 15.9984 41.0719L14.2242 47.2807ZM19.9685 40.5775L19.1952 37.0969H17.1339L16.4435 39.5114C15.146 39.0009 13.8895 38.3695 12.7 37.6324L11.979 33.0646H9.88306L9.28468 35.0606C4.51452 30.7332 1.75 24.684 1.61774 18.2267L15.9516 10.6832C17.0694 11.8275 20.204 14.5162 25 14.5162C29.796 14.5162 32.9306 11.8275 34.0484 10.6824L48.3823 18.2259C48.1234 30.8985 37.7339 41.1291 25 41.1291C23.3008 41.1291 21.6129 40.938 19.9685 40.5775Z" fill="#4E31AA"/>
<path d="M36.2895 15.3225C34.4927 15.3225 32.7532 15.9257 31.3379 17.0306C31.1072 16.9669 30.8758 16.9354 30.6443 16.9354C29.2605 16.9354 28.0411 17.9894 27.3 19.7733C26.4693 19.012 25.3726 18.5483 24.1693 18.5483C22.929 18.5483 21.7637 19.0314 20.8863 19.9088L20.0822 20.7128C19.1911 19.3661 17.6984 18.5483 16.0532 18.5483C15.4718 18.5483 14.9 18.6523 14.3532 18.8564L9.18628 20.7943L8.24031 19.3757C7.89515 18.858 7.31773 18.5483 6.69515 18.5483C5.67096 18.5483 4.83789 19.3814 4.83789 20.4056V23.387C4.83789 24.7209 5.92337 25.8064 7.25725 25.8064V27.4193C7.25725 28.3088 7.98063 29.0322 8.87015 29.0322H10.0847C11.7113 31.1144 13.7 32.8362 16.0032 34.1523L17.0621 34.7572C18.3895 35.7169 20.0137 36.2903 21.7734 36.2903C25.0839 36.2903 28.3363 35.3894 31.1758 33.6862L35.0677 31.3507C35.471 31.4128 35.8782 31.4515 36.2895 31.4515C40.7363 31.4515 44.354 27.8338 44.354 23.387C44.354 18.9403 40.7363 15.3225 36.2895 15.3225ZM11.1282 27.7419L10.8863 27.4193H8.87015V25.8064H11.1589C12.3363 25.8064 13.3774 26.5572 13.7508 27.6741H13.7516C13.7266 27.8564 13.7089 28.0394 13.7089 28.2257C13.7089 29.1693 13.8806 30.0717 14.1798 30.9144C13.0492 29.9806 12.0193 28.9306 11.1282 27.7419ZM36.2895 29.8386C34.7242 29.8386 33.2113 29.2644 32.0298 28.2217L30.9621 29.4314C31.5693 29.9669 32.25 30.3975 32.9734 30.7265L30.346 32.3032C27.7564 33.8556 24.7919 34.6773 21.7734 34.6773C18.2161 34.6773 15.3218 31.783 15.3218 28.2257C15.3218 27.5314 15.6201 26.8701 16.1411 26.4112L15.075 25.2015C14.8685 25.3838 14.6847 25.5862 14.5218 25.8023C13.7129 24.8088 12.4951 24.1935 11.1589 24.1935H7.25725C6.81208 24.1935 6.45079 23.8322 6.45079 23.387V20.4056C6.45079 20.1886 6.77741 20.0886 6.89837 20.2701L8.55483 22.754L14.9201 20.3669C15.2839 20.2306 15.6661 20.1612 16.0532 20.1612C17.2839 20.1612 18.3903 20.8459 18.9411 21.9467C19.8831 23.8298 21.7766 24.9999 23.8822 24.9999H24.9992V23.387H23.8822C22.7516 23.387 21.7089 22.9088 20.979 22.0959L22.0258 21.0491C22.5984 20.4765 23.3589 20.1612 24.1685 20.1612C25.6556 20.1612 26.9121 21.2257 27.1564 22.6935C27.3669 23.9507 28.0943 25.0765 29.1548 25.783L30.1968 26.4773L31.0911 25.1354L30.0492 24.4411C29.3589 23.9814 28.8847 23.2475 28.7476 22.4282C28.6903 22.0822 28.5847 21.7572 28.458 21.4443L28.5072 21.179C28.9347 19.6056 29.7935 18.5483 30.6443 18.5483C30.8048 18.5483 30.9693 18.5903 31.1476 18.6749L31.629 18.9048L32.0298 18.5515C33.2113 17.5096 34.7242 16.9354 36.2895 16.9354C39.8468 16.9354 42.7411 19.8298 42.7411 23.387C42.7411 26.9443 39.8468 29.8386 36.2895 29.8386Z" fill="#FF5677"/>
<path d="M30.1314 5.93872C28.7604 7.30888 26.9379 8.06453 24.9991 8.06453C23.0604 8.06453 21.2379 7.30888 19.8669 5.93872L18.7266 7.07904C20.4016 8.75404 22.6298 9.67743 24.9991 9.67743C27.3685 9.67743 29.5967 8.75404 31.2717 7.07904L30.1314 5.93872Z" fill="#4E31AA"/>
<path d="M27.2797 3.08716C26.062 4.30651 23.9362 4.30651 22.7184 3.08716L21.5781 4.22748C22.491 5.142 23.7055 5.64522 24.9991 5.64522C26.2926 5.64522 27.5072 5.142 28.4201 4.22748L27.2797 3.08716Z" fill="#FF5677"/>
<path d="M25.8063 0H24.1934V1.6129H25.8063V0Z" fill="#4E31AA"/>
</g>
<defs>
<clipPath id="clip0_1_976">
<rect width="50" height="50" fill="white"/>
</clipPath>
</defs>
</svg>
