<svg width="50" height="50" viewBox="0 0 50 50" fill="none" xmlns="http://www.w3.org/2000/svg">
<path d="M41.6219 1.67574C41.1489 1.60524 36.6404 1.09454 30.8452 6.12514C28.8865 7.85584 26.0229 8.40844 23.6305 7.48284C24.9429 6.97194 27.0692 6.01804 28.9267 4.60694C29.6036 4.09312 30.3487 3.67602 31.1405 3.36764C31.2764 3.3146 31.3857 3.20974 31.4443 3.07613C31.5029 2.94252 31.506 2.7911 31.453 2.65519C31.3999 2.51928 31.2951 2.41001 31.1615 2.35141C31.0279 2.29282 30.8764 2.2897 30.7405 2.34274C29.8534 2.68818 29.0188 3.15543 28.2605 3.73104C25.5605 5.78284 22.1305 6.85304 22.065 6.87324C20.56 7.22824 11.8522 10.5365 15.2667 15.8911C13.0377 15.7765 10.8438 16.482 9.09953 17.8745C8.34234 18.3691 7.80992 19.1415 7.61713 20.0251C7.50303 20.5476 7.56587 21.0932 7.79578 21.5761C8.02568 22.0589 8.4096 22.4517 8.88713 22.6924C5.86333 26.8678 4.24363 31.8818 4.07113 37.6063C2.98053 41.1398 4.39313 48.1515 11.2167 48.3712C12.3063 48.3771 13.3806 48.1156 14.3456 47.6098C18.0641 45.5778 16.0013 39.6406 11.7945 40.8006C11.8099 39.4826 10.2591 38.6014 9.13513 39.3169C7.38513 40.3148 6.21513 39.3938 5.17353 37.5596C5.35773 31.915 7.00253 27.0007 10.0646 22.9506C10.6092 22.926 11.081 22.7387 11.6037 22.5071C14.2391 21.3345 16.512 22.2638 19.048 23.7925C23.4242 26.6036 26.8922 29.1525 33.5047 31.5482C34.6915 31.9741 35.9774 32.0415 37.2022 31.7419C36.5542 34.6093 36.8041 37.6095 38.0622 40.2742C40.0497 44.5421 39.79 47.4552 39.7859 47.4971C39.7707 47.6422 39.8137 47.7874 39.9055 47.9008C39.9973 48.0141 40.1304 48.0864 40.2755 48.1016C40.4206 48.1168 40.5657 48.0738 40.6791 47.982C40.7924 47.8902 40.8647 47.7571 40.8799 47.612C40.8936 47.482 41.1917 44.3888 39.0593 39.8098C37.7851 37.1541 37.6915 34.1447 38.418 31.3163C39.8656 30.6441 41.0119 29.4583 41.6347 27.9888C43.4702 23.6639 45.7619 13.9324 46.2481 6.33884C46.4447 3.64144 44.3186 1.74474 41.6219 1.67574ZM7.01123 40.7164C7.87853 40.9569 8.80953 40.7986 9.70383 40.2585C10.3443 39.8734 11.0271 40.7158 10.519 41.2638L10.1318 41.681C9.71103 42.1351 10.2627 42.8369 10.8032 42.5352L11.7015 42.0333C12.1174 41.7999 12.5967 41.7047 13.0702 41.7615C13.5437 41.8183 13.9869 42.0242 14.3357 42.3493C15.6598 43.5153 15.4036 45.8367 13.8225 46.6421C11.4359 47.9107 8.30733 47.1915 6.54423 45.1229C4.85263 43.17 4.76813 40.6852 4.91723 39.1819C5.54533 39.9898 6.24633 40.5042 7.01123 40.7164ZM15.7147 12.6592C16.5016 9.97334 21.0858 8.34384 22.1547 7.99754C25.0747 9.70664 29.0099 9.22854 31.5666 6.95574C34.0274 4.81974 36.2386 3.75234 37.9444 3.22634C37.3035 3.99404 36.852 5.03054 36.6256 6.30634C36.6279 6.30704 34.6739 19.9343 34.6756 19.941C34.6342 20.2051 34.5356 20.457 34.3868 20.6791C34.2379 20.9011 34.0424 21.088 33.8139 21.2268C33.5854 21.3655 33.3294 21.4527 33.0637 21.4822C32.798 21.5118 32.5291 21.483 32.2756 21.3979C29.1538 20.2527 26.2263 19.1861 23.6408 18.2886C24.9646 17.9957 26.4935 17.305 28.0041 15.8457C28.1086 15.7443 28.1687 15.6055 28.171 15.4599C28.1733 15.3143 28.1178 15.1737 28.0166 15.0689C27.9154 14.9642 27.7768 14.9038 27.6312 14.9012C27.4855 14.8985 27.3448 14.9537 27.2398 15.0546C22.6584 19.116 19.9798 16.7885 16.7953 16.1246C15.764 14.8998 15.3995 13.7348 15.7147 12.6592ZM45.1505 6.26874C44.6786 13.6395 42.3853 23.4049 40.6223 27.5587C40.0862 28.8186 39.089 29.826 37.8348 30.3749C36.5805 30.9239 35.1639 30.9729 33.8746 30.5119C27.3846 28.1588 23.9646 25.6428 19.6413 22.8659C17.6513 21.6259 15.9282 20.9322 13.944 20.8721C12.9741 20.8777 12.0171 21.0952 11.1399 21.5092C10.876 21.634 10.6012 21.7344 10.319 21.8092C9.40583 22.0749 8.45173 21.1923 8.69173 20.2601C8.95783 19.173 9.63173 18.8607 9.75433 18.7586C12.9108 16.2599 16.2037 17.1062 16.3411 17.143C20.0493 18.083 26.6259 20.497 31.9144 22.4365C32.3205 22.5746 32.7519 22.622 33.1783 22.5754C33.6047 22.5289 34.0157 22.3895 34.3825 22.1671C34.7492 21.9447 35.0628 21.6447 35.3012 21.2881C35.5396 20.9316 35.6971 20.5271 35.7624 20.1032L37.7099 6.48904C38.0153 4.77904 38.9027 2.77024 41.3869 2.77024C43.5325 2.75104 45.3092 4.09984 45.1505 6.26874Z" fill="#4E31AA"/>
<path d="M18.6613 31.2692C18.7613 30.5313 18.5205 29.8248 17.947 29.1692C16.62 27.5809 14.5425 28.426 13.4139 29.3881C12.2884 28.4274 10.2071 27.5801 8.88064 29.1693C8.30724 29.8246 8.06684 30.5311 8.16644 31.2693C8.34994 32.6301 9.66774 33.5635 9.82534 33.6707C11.8461 35.156 12.994 36.4193 13.0053 36.4316C13.0569 36.4889 13.1199 36.5347 13.1904 36.566C13.2608 36.5974 13.337 36.6136 13.414 36.6136C13.4911 36.6136 13.5673 36.5974 13.6377 36.566C13.7081 36.5347 13.7712 36.4889 13.8227 36.4316C13.834 36.419 14.9818 35.1556 17.0027 33.6704C17.1599 33.5634 18.4777 32.6299 18.6613 31.2692ZM17.5713 31.1185C17.4193 32.0775 16.42 32.7293 16.3599 32.7774C15.3183 33.5361 14.3335 34.3699 13.4135 35.2722C12.4935 34.3699 11.5087 33.5361 10.4671 32.7774C10.4606 32.7726 10.4527 32.7674 10.4459 32.7627C10.4353 32.7555 9.37704 32.0382 9.25594 31.1185C9.20124 30.7048 9.34934 30.3042 9.70834 29.8937C10.6533 28.6779 12.4599 29.9337 13.0249 30.509C13.1281 30.6118 13.2678 30.6696 13.4134 30.6697C13.559 30.6698 13.6988 30.6122 13.8021 30.5096C14.3638 29.9342 16.1739 28.6764 17.1191 29.8938C17.4783 30.3042 17.6263 30.7048 17.5716 31.1185H17.5713Z" fill="#FF5677"/>
</svg>
