<svg width="50" height="50" viewBox="0 0 50 50" fill="none" xmlns="http://www.w3.org/2000/svg">
<path d="M36.7188 48.4374C37.15 48.4374 37.5 48.0874 37.5 47.6561V41.7264L42.7672 37.5983C43.4266 37.0733 44.3094 36.0436 44.6547 35.2249L48.3734 26.5795C48.4156 26.4827 48.4375 26.3764 48.4375 26.2702V18.7405C48.4375 17.7686 47.3359 17.0514 46.2719 16.9217C44.9531 16.7514 43.2953 17.4686 42.6703 19.9639C42.3484 21.2592 42.2766 22.3545 42.2125 23.3202C42.1828 23.7499 42.5078 24.1545 42.9391 24.1827C43.3703 24.2124 43.7406 23.917 43.7672 23.4874C43.8312 22.5217 43.8984 21.5014 44.1875 20.3405C44.3844 19.5561 44.8063 18.592 45.7078 18.4717C46.3109 18.3858 46.8156 18.7092 46.8984 18.8561L46.875 26.1092L43.2172 34.6139C42.9891 35.1592 42.2797 35.9889 41.7984 36.3733L36.2359 40.7327C36.0469 40.8795 35.9375 41.1061 35.9375 41.3467V47.6561C35.9375 48.0874 36.2875 48.4374 36.7188 48.4374Z" fill="#FF5677"/>
<path d="M13.2812 48.4374C12.85 48.4374 12.5 48.0874 12.5 47.6561V41.7264L7.23281 37.5983C6.57344 37.0733 5.69063 36.0436 5.34531 35.2249L1.62656 26.5795C1.58438 26.4827 1.5625 26.3764 1.5625 26.2702V18.7405C1.5625 17.7686 2.66406 17.0514 3.72812 16.9217C5.04687 16.7514 6.70469 17.4686 7.32969 19.9639C7.65156 21.2592 7.72344 22.3545 7.7875 23.3202C7.81719 23.7499 7.49219 24.1545 7.06094 24.1827C6.62969 24.2124 6.25938 23.917 6.23281 23.4874C6.16875 22.5217 6.10156 21.5014 5.8125 20.3405C5.61562 19.5561 5.19375 18.592 4.29219 18.4717C3.68906 18.3858 3.18438 18.7092 3.10156 18.8561L3.125 26.1092L6.78281 34.6139C7.01094 35.1592 7.72031 35.9889 8.20156 36.3733L13.7641 40.7327C13.9531 40.8795 14.0625 41.1061 14.0625 41.3467V47.6561C14.0625 48.0874 13.7125 48.4374 13.2812 48.4374Z" fill="#FF5677"/>
<path d="M22.6556 48.4375C22.2244 48.4375 21.8744 48.0875 21.8744 47.6563V39.1203C21.8744 35.8281 19.601 32.9578 16.3447 32.1391C15.926 32.0344 15.6728 31.6094 15.7775 31.1906C15.8822 30.7735 16.2994 30.5141 16.726 30.6235C20.676 31.6172 23.4369 35.111 23.4369 39.1203V47.6563C23.4369 48.0875 23.0869 48.4375 22.6556 48.4375Z" fill="#FF5677"/>
<path d="M13.6906 35.0263C13.4906 35.0263 13.2906 34.9498 13.1375 34.7982L6.28281 27.9544C6.13594 27.8076 6.05469 27.6091 6.05469 27.4013C6.05469 27.1951 6.1375 26.9951 6.28281 26.8482C8.43125 24.6998 11.0797 24.881 13.5469 27.3482L17.0703 30.8638C17.375 31.1685 17.375 31.6638 17.0703 31.9685C16.7656 32.2748 16.2703 32.2732 15.9656 31.9701L12.4422 28.4544C10.8406 26.8529 9.34219 26.5138 7.9875 27.4482L14.2406 33.6919C14.5453 33.9966 14.5453 34.4919 14.2406 34.7982C14.0906 34.9498 13.8906 35.0263 13.6906 35.0263Z" fill="#FF5677"/>
<path d="M27.3438 48.4373C26.9125 48.4373 26.5625 48.0873 26.5625 47.656V39.1201C26.5625 35.1107 29.3234 31.617 33.2734 30.6232C33.6969 30.5138 34.1156 30.7732 34.2219 31.1904C34.325 31.6091 34.0719 32.0341 33.6547 32.1388C30.3984 32.9576 28.125 35.8279 28.125 39.1201V47.656C28.125 48.0873 27.775 48.4373 27.3438 48.4373Z" fill="#FF5677"/>
<path d="M36.3086 35.0261C36.1086 35.0261 35.9086 34.9495 35.7555 34.7979C35.4508 34.4917 35.4508 33.9979 35.7555 33.6917L42.0086 27.4479C40.6555 26.5151 39.1555 26.8542 37.5539 28.4542L34.0305 31.9698C33.7258 32.2729 33.2305 32.2745 32.9258 31.9683C32.6211 31.6636 32.6211 31.1683 32.9258 30.8636L36.4492 27.3479C38.9164 24.8808 41.5648 24.6995 43.7133 26.8479C43.8602 26.9948 43.9414 27.1933 43.9414 27.4011C43.9414 27.6089 43.8586 27.8073 43.7133 27.9542L36.8586 34.7979C36.7086 34.9495 36.5086 35.0261 36.3086 35.0261Z" fill="black"/>
<path d="M36.3086 35.0263C36.1086 35.0263 35.9086 34.9498 35.7555 34.7982C35.4508 34.4919 35.4508 33.9982 35.7555 33.6919L42.0086 27.4482C40.6555 26.5154 39.1555 26.8544 37.5539 28.4544L34.0305 31.9701C33.7258 32.2732 33.2305 32.2748 32.9258 31.9685C32.6211 31.6638 32.6211 31.1685 32.9258 30.8638L36.4492 27.3482C38.9164 24.881 41.5648 24.6998 43.7133 26.8482C43.8602 26.9951 43.9414 27.1935 43.9414 27.4013C43.9414 27.6091 43.8586 27.8076 43.7133 27.9544L36.8586 34.7982C36.7086 34.9498 36.5086 35.0263 36.3086 35.0263Z" fill="#FF5677"/>
<path d="M28.4372 19.4515C28.0137 19.4515 27.5903 19.4172 27.1669 19.3469C25.145 19.0109 23.3731 17.9062 22.1778 16.2344C20.9825 14.5625 20.5106 12.5281 20.845 10.5062C21.0809 9.09373 22.4184 8.13279 23.8341 8.37029C25.2466 8.60467 26.2059 9.94685 25.97 11.3594C25.8762 11.9219 25.9825 12.5047 26.2637 12.9969C26.4794 13.3719 26.3497 13.8484 25.9747 14.064C25.6044 14.275 25.1247 14.15 24.9075 13.775C24.4466 12.9719 24.2762 12.0234 24.4262 11.1047C24.52 10.5406 24.1372 10.0047 23.5747 9.91092C23.0091 9.82185 22.4762 10.1984 22.3825 10.7625C22.1153 12.3719 22.4919 13.9922 23.445 15.325C24.3981 16.6578 25.8106 17.539 27.42 17.8062C27.8622 17.8781 28.3106 17.9062 28.7481 17.8812C29.1872 17.8719 29.5481 18.1906 29.5684 18.6203C29.5919 19.0515 29.2606 19.4187 28.8294 19.4422C28.7028 19.4484 28.57 19.4515 28.4372 19.4515Z" fill="#4E31AA"/>
<path d="M23.8852 29.9999C23.1695 29.9999 22.4086 29.9312 21.5961 29.7812C19.4836 29.3905 17.7602 28.1749 16.7414 26.3546C16.0399 25.103 15.4524 23.1452 15.8477 20.2765C15.5586 20.4124 15.2758 20.4968 15.0024 20.5624C13.9195 20.8234 12.3664 20.3671 11.4633 19.5265C10.7789 18.8874 10.4805 18.0577 10.6258 17.1905C10.7524 16.4421 11.1211 15.8468 11.693 15.4671C12.3445 15.0359 13.1274 14.9655 13.6727 14.9984C14.7633 12.1171 17.0649 10.7062 19.6836 11.3749C20.8383 11.6702 21.7774 12.3843 22.3977 13.439C23.5274 15.3562 23.4274 17.9624 22.957 19.7609C22.8492 20.178 22.4274 20.4265 22.0055 20.3202C21.5867 20.2109 21.3367 19.7843 21.4477 19.3671C21.818 17.939 21.9383 15.739 21.0524 14.2327C20.6399 13.5343 20.0492 13.0812 19.2961 12.889C17.3102 12.378 15.6992 13.5749 14.9602 16.0749C14.8414 16.4718 14.4399 16.7062 14.0305 16.614C13.7758 16.5562 13.007 16.4718 12.5539 16.7749C12.4227 16.864 12.2399 17.0296 12.168 17.453C12.1461 17.5796 12.0805 17.9671 12.5289 18.3859C13.1383 18.953 14.1883 19.153 14.6367 19.0452C15.1899 18.9124 15.9258 18.7343 16.718 16.764C16.807 16.5077 16.9008 16.2468 17.0039 15.9812C17.1555 15.5843 17.593 15.378 17.9977 15.5249C18.3977 15.6687 18.6102 16.1046 18.4758 16.5077C18.3805 16.7874 18.2867 17.0468 18.1899 17.289C17.007 20.7187 16.9774 23.578 18.1055 25.5937C18.893 26.9999 20.2336 27.9421 21.882 28.2468C28.8195 29.5249 31.4383 24.1124 32.9992 20.8749C33.5289 19.7749 33.8492 19.1124 34.3024 18.789C34.4414 18.6905 34.7164 18.5405 35.0899 18.3437C36.9492 17.3671 41.3055 15.078 41.7977 10.789C42.2117 7.20929 39.6258 3.81241 36.0383 3.2171C34.3383 2.93273 32.6133 3.33116 31.2024 4.33898C29.793 5.34679 28.8602 6.84366 28.5758 8.55304C28.5352 8.88741 28.2789 9.27023 27.9492 9.33585C26.9195 9.54054 26.143 10.3359 25.9727 11.3593C25.7992 12.4015 26.3149 13.4421 27.257 13.9499C27.6367 14.1546 27.7789 14.628 27.5742 15.0077C27.368 15.3874 26.8977 15.5296 26.5149 15.3265C24.9852 14.503 24.1461 12.8062 24.4305 11.103C24.6727 9.64366 25.7149 8.43429 27.0977 7.95148C27.5086 5.98273 28.6336 4.25304 30.2914 3.06866C32.0399 1.8171 34.1711 1.32335 36.293 1.67491C40.6883 2.4046 43.8539 6.57335 43.3492 10.9671C42.7602 16.078 37.7149 18.728 35.8149 19.7265C35.5305 19.8765 35.318 19.9827 35.2102 20.0577C35.0586 20.1984 34.6961 20.9499 34.4039 21.553C33.0352 24.3937 30.3289 29.9999 23.8852 29.9999Z" fill="#4E31AA"/>
</svg>
