<svg width="50" height="50" viewBox="0 0 50 50" fill="none" xmlns="http://www.w3.org/2000/svg">
<path d="M31.9852 2.3584C24.5255 2.3584 18.457 8.42691 18.457 15.8866C18.457 16.1618 18.457 24.2717 18.457 23.764C18.457 24.285 18.8794 24.7074 19.4004 24.7074C19.9214 24.7074 20.3438 24.285 20.3438 23.764V21.6182C20.8369 21.8792 21.3903 22.0412 21.9865 22.0412H22.3112C23.777 26.0603 27.6547 28.8099 31.9806 28.8099C36.3125 28.8099 40.1948 26.0603 41.661 22.0412H41.9857C42.5709 22.0412 43.1265 21.8854 43.627 21.6217V25.7281C42.9424 26.9861 38.709 33.928 28.5225 34.9933C27.8616 34.4528 27.1987 33.8571 26.5335 33.1851C26.1673 32.8161 25.5698 32.8119 25.199 33.1782C24.8286 33.5448 24.8259 34.1423 25.1921 34.5126C30.3599 39.7328 36.4813 42.1991 42.8214 38.3697C41.119 42.763 36.8979 45.7546 31.9852 45.7546C27.9924 45.7546 24.4683 43.7461 22.4158 40.7327C22.1233 40.3029 21.5369 40.191 21.1048 40.4849C20.6746 40.7783 20.5635 41.3652 20.857 41.7959C23.2517 45.3081 27.3407 47.6414 31.9852 47.6414C39.6263 47.6414 45.5138 41.517 45.5138 34.1133C45.5138 24.557 45.5138 25.2252 45.5138 15.8866C45.5138 8.41 39.4623 2.3584 31.9852 2.3584ZM31.9852 4.24519C38.1768 4.24519 43.3439 9.09762 43.6032 15.3974C43.1163 15.1439 42.5716 14.9869 41.9857 14.9869H41.6596C40.1837 10.9678 36.3019 8.21823 31.9806 8.21823C27.6547 8.21823 23.777 10.9678 22.3112 14.9869H21.9865C21.4147 14.9869 20.8632 15.1397 20.3688 15.3935C20.6299 9.20395 25.7325 4.24519 31.9852 4.24519ZM41.9857 20.1544H40.9765C40.5554 20.1544 40.1855 20.4331 40.0695 20.838C39.0431 24.4209 35.7169 26.9231 31.9806 26.9231C28.2508 26.9231 24.9291 24.4209 23.9027 20.838C23.7867 20.4331 23.4168 20.1544 22.9957 20.1544H21.9865C21.0884 20.1544 20.3589 19.4355 20.3438 18.5468V18.4905C20.3588 17.5927 21.0729 16.8737 21.9865 16.8737H22.9957C23.4168 16.8737 23.7867 16.595 23.9027 16.1901C24.9277 12.6121 28.2419 10.1123 31.9657 10.1057C31.979 10.1062 31.9901 10.1133 32.0036 10.1133C32.6937 10.1133 33.2552 10.6748 33.2552 11.3649C33.2552 12.0595 32.6937 12.6243 32.0036 12.6243C31.4826 12.6243 31.0602 13.0467 31.0602 13.5677C31.0602 14.0887 31.4826 14.5111 32.0036 14.5111C33.7342 14.5111 35.142 13.0997 35.142 11.3649C35.142 11.1387 35.1154 10.9191 35.0698 10.7063C37.4393 11.6517 39.3335 13.6465 40.0704 16.1924C40.1869 16.5959 40.5564 16.8737 40.9765 16.8737H41.9857C42.8927 16.8737 43.6023 17.5727 43.627 18.4725V18.5674C43.6014 19.4752 42.8621 20.1544 41.9857 20.1544ZM30.7616 36.578C37.4993 35.3131 41.5423 31.6322 43.627 29.0479V34.1133C43.627 34.6176 43.5891 35.0982 43.5298 35.5629C39.4289 38.8595 35.1508 39.1962 30.7616 36.578Z" fill="#4E31AA"/>
<path d="M30.4374 16.7208C30.2016 16.2574 29.634 16.0694 29.1693 16.3066C28.5354 16.6282 27.9444 16.6286 27.3096 16.3062C26.8449 16.0708 26.2769 16.2569 26.0415 16.7212C25.8061 17.1856 25.9917 17.7535 26.4565 17.9894C27.0397 18.2851 27.6399 18.433 28.2397 18.433C28.8399 18.433 29.4401 18.2851 30.0233 17.9889C30.4876 17.7535 30.6733 17.1856 30.4374 16.7208Z" fill="black"/>
<path d="M36.6593 16.3066C36.0255 16.6282 35.434 16.6282 34.8002 16.3066C34.3354 16.0694 33.7679 16.2574 33.532 16.7208C33.2962 17.1856 33.4818 17.7535 33.9462 17.9889C34.5298 18.2851 35.1295 18.433 35.7298 18.433C36.33 18.433 36.9297 18.2851 37.5134 17.9889C37.9777 17.7535 38.1633 17.1856 37.9275 16.7208C37.6916 16.2574 37.1246 16.0694 36.6593 16.3066Z" fill="black"/>
<path d="M34.5159 21.6274C34.0746 21.3478 33.4924 21.4786 33.2137 21.9181C32.9866 22.276 32.5043 22.5072 31.9856 22.5072C31.4669 22.5072 30.9847 22.276 30.7576 21.9181C30.4789 21.4786 29.8966 21.3478 29.4553 21.6274C29.0154 21.9065 28.8855 22.4897 29.1647 22.9296C29.7382 23.8329 30.8193 24.394 31.9856 24.394C33.152 24.394 34.2331 23.8329 34.8066 22.9296C35.0858 22.4897 34.9559 21.9065 34.5159 21.6274Z" fill="black"/>
<path d="M13.8595 28.107C12.8433 27.0539 11.4296 26.4353 9.93435 26.4353C6.9305 26.4353 4.48633 28.879 4.48633 31.8829C4.48633 38.3683 13.0405 43.1433 13.4048 43.3432C13.6849 43.4974 14.0287 43.4998 14.3132 43.3432C14.6776 43.1433 23.2322 38.3683 23.2322 31.8829C23.2322 28.879 20.788 26.4353 17.7842 26.4353C16.2894 26.4353 14.8757 27.0539 13.8595 28.107ZM21.3454 31.8829C21.3454 36.4944 15.545 40.3868 13.8586 41.4209C12.1712 40.3886 6.37312 36.5045 6.37312 31.8829C6.37312 29.9196 7.97063 28.3221 9.93435 28.3221C11.2149 28.3221 12.4043 29.0172 13.0382 30.1356C13.2058 30.4309 13.5191 30.6138 13.8586 30.6138C14.1981 30.6138 14.5118 30.4314 14.6794 30.1361C15.3147 29.0172 16.504 28.3221 17.7842 28.3221C19.7479 28.3221 21.3454 29.9196 21.3454 31.8829Z" fill="#FF5677"/>
<path d="M10.1562 32.0693C10.5699 31.9693 10.8776 31.5967 10.8776 31.1521C10.8776 30.6311 10.4552 30.2087 9.9342 30.2087C9.01107 30.2087 8.25977 30.9596 8.25977 31.8827C8.25977 32.9233 8.70889 34.056 9.59379 35.2491C9.77897 35.4983 10.0636 35.63 10.3525 35.63C10.5478 35.63 10.7449 35.5697 10.914 35.4444C11.3323 35.1335 11.4198 34.5429 11.1093 34.1242C10.5413 33.3591 10.2147 32.6538 10.1562 32.0693Z" fill="#FF5677"/>
</svg>
