<svg width="50" height="50" viewBox="0 0 50 50" fill="none" xmlns="http://www.w3.org/2000/svg">
<g clip-path="url(#clip0_1_1014)">
<path d="M44.4737 27.5319C44.1432 27.1032 43.5277 27.0235 43.0987 27.3541C42.6698 27.6847 42.5902 28.3003 42.9208 28.7291C43.9287 30.0365 44.4614 31.6026 44.4614 33.258C44.4614 33.7994 44.9004 34.2384 45.4418 34.2384C45.9832 34.2384 46.4222 33.7993 46.4222 33.258C46.4222 31.1655 45.7484 29.1855 44.4737 27.5319Z" fill="#FF5677"/>
<path d="M41.1793 20.9541C43.1698 19.6106 44.4813 17.3346 44.4813 14.7579C44.4813 10.6381 41.1296 7.28633 37.0098 7.28633C32.8899 7.28633 29.5382 10.6381 29.5382 14.7579C29.5382 17.3334 30.8484 19.6086 32.8375 20.9523C31.3885 21.4429 30.0318 22.1898 28.8273 23.1692C27.8082 22.1891 26.4404 21.6245 25.0001 21.6245C23.5599 21.6245 22.1921 22.1893 21.1735 23.1692C19.9687 22.1898 18.6118 21.4429 17.1626 20.9522C19.1517 19.6085 20.4619 17.3333 20.4619 14.7577C20.4619 10.6379 17.1102 7.28613 12.9903 7.28613C8.871 7.28613 5.51973 10.6379 5.51973 14.7577C5.51973 17.3344 6.83096 19.6104 8.82119 20.9539C3.70518 22.6923 0.0124023 27.5384 0.00136719 33.2324C0.00107422 33.2411 0 33.2493 0 33.2579C0 34.7631 0.855273 36.9845 4.93008 39.0196C7.83359 40.4698 11.8236 41.56 16.4689 42.172C19.1938 42.5313 22.0641 42.7137 25.0001 42.7137C27.9368 42.7137 30.8074 42.5314 33.5321 42.172C38.177 41.56 42.1668 40.4698 45.0702 39.0196C49.1447 36.9844 50 34.7631 50 33.2579C50 27.5529 46.3032 22.6951 41.1793 20.9541ZM31.499 14.7579C31.499 11.7192 33.9712 9.24717 37.0098 9.24717C40.0483 9.24717 42.5205 11.7193 42.5205 14.7579C42.5205 17.7961 40.0483 20.2677 37.0098 20.2677C33.9712 20.2677 31.499 17.7961 31.499 14.7579ZM22.0748 25.117C22.7409 24.158 23.8343 23.5854 25 23.5854C26.1663 23.5854 27.2601 24.158 27.9261 25.117C27.9262 25.1173 27.9264 25.1175 27.9265 25.1177C28.3421 25.7152 28.5616 26.4169 28.5616 27.1471C28.5616 29.111 26.9639 30.7088 24.9999 30.7088C23.0364 30.7088 21.4392 29.1109 21.4392 27.147C21.4392 26.4157 21.6586 25.7143 22.0748 25.117ZM7.48037 14.7579C7.48037 11.7192 9.95205 9.24717 12.9901 9.24717C16.0288 9.24717 18.5009 11.7193 18.5009 14.7579C18.5009 17.7961 16.0287 20.2677 12.9901 20.2677C9.95205 20.2677 7.48037 17.7961 7.48037 14.7579ZM15.6171 40.0705C11.6635 39.4685 8.28848 38.5053 5.80635 37.2655C3.33369 36.0307 1.96924 34.6119 1.96133 33.2696C1.96133 33.2657 1.96191 33.2619 1.96191 33.258C1.96182 27.1764 6.90918 22.2285 12.9902 22.2285C15.5773 22.2285 18.0456 23.1223 20.0208 24.7593C19.6646 25.4994 19.4785 26.3108 19.4785 27.1472C19.4785 28.8539 20.2569 30.3821 21.4771 31.396C18.0502 32.7893 15.626 36.1514 15.6171 40.0705ZM32.4235 40.3329C30.0389 40.6111 27.5465 40.753 25 40.753C22.4541 40.753 19.9621 40.6111 17.5774 40.3329V40.0922C17.5774 35.9993 20.9071 32.6696 25 32.6696C29.0934 32.6696 32.4235 35.9993 32.4235 40.0922V40.3329ZM44.1939 37.2654C41.712 38.5053 38.3374 39.4684 34.3842 40.0704C34.3753 36.1513 31.9509 32.7894 28.5237 31.3959C29.7441 30.382 30.5228 28.8538 30.5228 27.147C30.5228 26.3116 30.3366 25.5 29.9801 24.7592C31.9544 23.1221 34.4224 22.2283 37.01 22.2283C43.0915 22.2284 48.0393 27.1763 48.0393 33.2578C48.0393 34.6037 46.6736 36.027 44.1939 37.2654Z" fill="#4E31AA"/>
<path d="M41.5369 25.229C40.2753 25.229 40.273 27.1897 41.5369 27.1897C42.7986 27.1897 42.8007 25.229 41.5369 25.229Z" fill="#FF5677"/>
</g>
<defs>
<clipPath id="clip0_1_1014">
<rect width="50" height="50" fill="white"/>
</clipPath>
</defs>
</svg>
