<svg width="25" height="24" viewBox="0 0 25 24" fill="none" xmlns="http://www.w3.org/2000/svg">
<g clip-path="url(#clip0_101_366)">
<path d="M16.2757 14.1194L12.9294 11.6097V6.4974C12.9294 5.98337 12.5139 5.56787 11.9999 5.56787C11.4859 5.56787 11.0704 5.98337 11.0704 6.4974V12.0745C11.0704 12.3673 11.208 12.6434 11.4422 12.8181L15.1602 15.6067C15.3275 15.7322 15.5227 15.7926 15.717 15.7926C16.0005 15.7926 16.2794 15.6652 16.4616 15.4198C16.7702 15.0099 16.6866 14.4271 16.2757 14.1194Z" fill="#4E31AA"/>
<path d="M11.9999 0C5.38274 0 -6.10352e-05 5.3828 -6.10352e-05 12C-6.10352e-05 18.6172 5.38274 24 11.9999 24C18.6171 24 23.9999 18.6172 23.9999 12C23.9999 5.3828 18.6171 0 11.9999 0ZM11.9999 22.141C6.40892 22.141 1.85895 17.591 1.85895 12C1.85895 6.40898 6.40892 1.85902 11.9999 1.85902C17.5919 1.85902 22.1409 6.40898 22.1409 12C22.1409 17.591 17.591 22.141 11.9999 22.141Z" fill="#4E31AA"/>
</g>
<defs>
<clipPath id="clip0_101_366">
<rect width="24" height="24" fill="white" transform="translate(0.347839)"/>
</clipPath>
</defs>
</svg>
