<svg width="52" height="53" viewBox="0 0 52 53" fill="none" xmlns="http://www.w3.org/2000/svg">
<path d="M13.9862 22.69L14.0746 22.388C14.1028 22.2871 14.127 22.1861 14.1536 22.086L14.2311 21.784L14.2694 21.633L14.3031 21.482C14.3469 21.2825 14.3946 21.0791 14.4353 20.8827C14.4705 20.6918 14.5057 20.5017 14.5409 20.3124L14.5542 20.2412L14.5659 20.1598L14.5886 19.9963C14.6043 19.8876 14.6191 19.7788 14.6348 19.6701L14.6575 19.5073L14.6629 19.4667C14.6661 19.4369 14.6629 19.4721 14.6622 19.4807L14.6637 19.462L14.6715 19.3876C14.6817 19.2883 14.6919 19.1897 14.7021 19.0903C14.7412 18.6945 14.767 18.2986 14.7787 17.9051C14.8288 16.3286 14.6692 14.7788 14.3883 13.3142C14.1051 11.8496 13.7194 10.4656 13.2883 9.20135C13.0771 8.56685 12.8541 7.96365 12.6343 7.3894C12.4152 6.81437 12.1915 6.27377 11.9795 5.76367C11.5538 4.74504 11.1541 3.86097 10.8239 3.13182C10.4883 2.40188 10.2246 1.82841 10.0447 1.43723C9.86552 1.0437 9.76929 0.833252 9.76929 0.833252C9.76929 0.833252 10.5235 3.2257 10.5415 6.03749C4.14884 10.7387 0 18.3127 0 26.856C0 33.1383 2.2438 38.8957 5.97252 43.3731C7.05217 47.1363 9.57136 49.5326 9.57136 49.5326C9.21617 48.9756 8.88914 48.3599 8.60593 47.6886C8.32115 47.0056 8.07706 46.2671 7.90728 45.4785C7.88616 45.3799 7.86347 45.2813 7.84391 45.1812C7.82592 45.081 7.80792 44.9801 7.78993 44.8784C7.77037 44.779 7.75785 44.6687 7.74221 44.5623L7.71952 44.4004L7.70857 44.3206L7.70074 44.2494C7.68979 44.1547 7.67884 44.0593 7.66788 43.9638L7.66554 43.9458C7.66554 43.9583 7.66319 43.9091 7.66319 43.9067L7.66084 43.8676L7.65615 43.7894L7.64598 43.6329C7.63424 43.424 7.61703 43.2128 7.60921 43.0007C7.60686 42.7887 7.60451 42.5751 7.60217 42.36L7.60138 42.198L7.60764 42.0369C7.61233 41.9289 7.61625 41.8209 7.62094 41.7122C7.62564 41.6034 7.63033 41.4947 7.63502 41.3852C7.64128 41.2764 7.65223 41.1677 7.66162 41.0589C7.68275 40.8414 7.69761 40.62 7.72578 40.401C7.75472 40.1819 7.78367 39.9621 7.8134 39.7407C7.84626 39.52 7.88851 39.3017 7.92684 39.0803C7.96283 38.8582 8.01134 38.6399 8.05828 38.4193C8.10522 38.1986 8.15216 37.9764 8.21006 37.7582C8.42051 36.8757 8.68964 36.0026 8.98694 35.1349C9.02449 35.0262 9.06204 34.9182 9.0996 34.8095C9.13871 34.7023 9.17783 34.5943 9.21773 34.4863C9.29753 34.272 9.3742 34.0529 9.45792 33.8401C9.54163 33.6265 9.62534 33.4122 9.70983 33.1978C9.79589 32.985 9.88273 32.7722 9.96958 32.5594C10.6737 30.8601 11.4514 29.2047 12.1586 27.5664C12.8698 25.9313 13.523 24.3055 13.9862 22.69Z" fill="#4E31AA"/>
<path d="M37.0673 52.7442C37.0321 52.7137 36.9899 52.6831 36.9515 52.6448C36.9124 52.6073 36.8709 52.5666 36.8263 52.5235C36.6526 52.3475 36.4485 52.1136 36.2568 51.8006C36.0628 51.4893 35.882 51.1004 35.7451 50.6412C35.4713 49.7227 35.404 48.5241 35.6637 47.209C35.7897 46.5502 36.0017 45.8641 36.3037 45.1663C36.3796 44.9918 36.4602 44.8158 36.5509 44.6421L36.5846 44.5764L36.5932 44.5599C36.5893 44.5654 36.6081 44.5341 36.6088 44.5318L36.6253 44.502L36.6902 44.3823C36.7332 44.3025 36.777 44.222 36.8209 44.1406C36.8623 44.0616 36.9155 43.9739 36.9656 43.8879C37.0164 43.8018 37.0673 43.715 37.1189 43.6281C37.2214 43.4545 37.3255 43.2925 37.4303 43.1212C37.8536 42.4476 38.323 41.7849 38.776 41.1066C39.2297 40.4291 39.678 39.743 40.0598 39.0341C40.2421 38.6782 40.422 38.3199 40.5629 37.9537C40.5981 37.8622 40.638 37.7714 40.6693 37.6791C40.6998 37.5868 40.7295 37.4945 40.76 37.4014L40.7835 37.3325L40.7882 37.3177C40.7882 37.3169 40.7952 37.2942 40.7929 37.3012L40.8383 37.1354C40.8688 37.0243 40.8993 36.9132 40.9298 36.8021C40.9462 36.7145 40.9627 36.626 40.9791 36.5376L41.0049 36.4078C41.0143 36.3663 41.019 36.3115 41.026 36.2646C41.0401 36.1668 41.0534 36.069 41.0675 35.9712C41.0816 35.8734 41.0847 35.7725 41.0941 35.6731C41.116 35.4752 41.1144 35.2718 41.1215 35.0699C41.1269 34.969 41.1168 34.8665 41.116 34.764L41.1121 34.6107L41.1105 34.534L41.1043 34.4566C41.0487 33.6351 40.8954 32.7964 40.6255 31.9757C40.4995 31.5634 40.336 31.1582 40.1592 30.7584L40.0199 30.4603C39.9753 30.3602 39.9206 30.2647 39.8713 30.1661L39.7954 30.0198L39.7774 29.9846L39.7696 29.9705L39.7234 29.8884L39.5372 29.5598L39.5137 29.5183L39.4926 29.4847L39.4504 29.4174L39.3667 29.2828L39.2837 29.1475C39.2563 29.1021 39.2219 29.0536 39.1914 29.0067L39.0036 28.7227L38.8049 28.4434C38.5373 28.0725 38.2526 27.708 37.9498 27.3528C37.3466 26.6408 36.6769 25.9625 35.9673 25.3116C35.6105 24.9869 35.2475 24.6662 34.8728 24.3548C34.4793 24.0309 34.0857 23.7078 33.693 23.3854C33.2823 23.042 32.8653 22.6782 32.4584 22.2737C32.0524 21.8677 31.6503 21.4241 31.2872 20.9077C30.9258 20.3914 30.5988 19.7952 30.3907 19.1161C30.1833 18.4402 30.1114 17.6805 30.2154 16.9779L30.2279 16.8864L30.235 16.8395L30.2491 16.7651C30.2678 16.6658 30.2882 16.5672 30.3101 16.4694L30.3265 16.3959L30.3437 16.3348L30.3781 16.2151C30.4016 16.1369 30.4235 16.054 30.4501 15.9804C30.5025 15.8326 30.555 15.6792 30.6129 15.5454L30.6989 15.3397L30.7873 15.1457L30.8319 15.0494L30.8765 14.9587L30.9649 14.7772C31.0228 14.6645 31.0807 14.5518 31.1386 14.4392C31.1934 14.3343 31.2481 14.2295 31.3029 14.1247L31.3811 13.9737L31.4539 13.8297C31.6464 13.4464 31.7786 13.1209 31.8498 12.833L31.8646 12.779C31.8545 12.8487 31.8638 12.7861 31.8631 12.7962L31.867 12.7743L31.874 12.7305L31.8889 12.6437L31.8928 12.6218L31.8936 12.6116L31.8959 12.5936L31.9014 12.5568L31.9045 12.5388L31.9061 12.5122C31.9084 12.4762 31.9131 12.4403 31.9147 12.4035C31.9241 12.2588 31.917 12.1101 31.8975 11.9591C31.8576 11.6571 31.7653 11.3434 31.6229 11.0344C31.4821 10.7253 31.2935 10.4226 31.076 10.1354C30.8593 9.84831 30.6089 9.57996 30.3437 9.33196C30.2099 9.20913 30.073 9.08943 29.9314 8.97833C29.8602 8.92278 29.789 8.86802 29.7171 8.8156L29.6631 8.7757L29.6357 8.75614C29.6161 8.74363 29.6474 8.7624 29.638 8.75614L29.6216 8.74519L29.4925 8.65835C29.3118 8.53395 29.1702 8.44867 29.02 8.35088C28.8572 8.25465 28.6976 8.15764 28.5302 8.06689C28.3667 7.97379 28.1977 7.88616 28.0319 7.79776C27.8621 7.71091 27.6939 7.62407 27.528 7.5388C26.8575 7.19612 26.18 6.87614 25.5432 6.53268C25.2248 6.35822 24.9142 6.18532 24.6169 6.00068C24.4674 5.91149 24.3227 5.81683 24.1803 5.72294C24.1451 5.69947 24.1091 5.676 24.0739 5.65331C24.0426 5.63454 24.0583 5.64314 24.0481 5.6361L24.0364 5.62749L24.0121 5.6095L23.9636 5.57429C23.8994 5.52735 23.8361 5.48041 23.7727 5.43425C23.7422 5.41235 23.7078 5.38575 23.6741 5.35836C23.6405 5.33176 23.6068 5.30517 23.5732 5.27857C23.5067 5.22537 23.441 5.17295 23.3753 5.12131C23.2532 5.01335 23.1327 4.91086 23.0177 4.80446C22.9059 4.69415 22.7932 4.59166 22.6907 4.48213C22.5898 4.37025 22.4873 4.26463 22.395 4.15354C22.021 3.71385 21.7221 3.27338 21.5101 2.84543C21.2958 2.41905 21.1534 2.0177 21.0744 1.65938C21.0618 1.61557 21.054 1.57098 21.047 1.52795C21.0399 1.48492 21.0329 1.44189 21.0258 1.40042C21.0141 1.31671 20.9953 1.23926 20.9914 1.1618C20.9867 1.08513 20.9828 1.01159 20.9781 0.941961C20.9758 0.872331 20.9664 0.808177 20.9719 0.745589C20.9766 0.621194 20.9813 0.512444 20.9867 0.420125C20.9969 0.327025 21.0118 0.249573 21.0212 0.186984C21.0407 0.0633721 21.0509 0 21.0509 0C21.0509 0 20.7622 0.61415 20.7051 1.54046C17.8456 2.11628 15.1582 3.16463 12.725 4.60026C12.8502 4.78098 12.977 4.9664 13.1068 5.15965C13.7374 6.1016 14.4087 7.19691 15.0565 8.45259C15.7019 9.70827 16.3239 11.1267 16.8129 12.707C17.301 14.2851 17.6523 16.0321 17.729 17.8839C17.747 18.3463 17.7525 18.8149 17.7337 19.2867C17.7282 19.4048 17.7235 19.5229 17.718 19.6411L17.7141 19.7303L17.7134 19.7522C17.7141 19.7522 17.7063 19.8304 17.7087 19.8069L17.7055 19.8476L17.6922 20.0111C17.6836 20.1207 17.6742 20.2294 17.6656 20.3389L17.6523 20.5032L17.6453 20.5854L17.6336 20.6777C17.6015 20.9234 17.5686 21.1706 17.5358 21.4178C17.4982 21.658 17.456 21.8904 17.4153 22.1282L17.384 22.3058L17.3464 22.481C17.3214 22.5984 17.2956 22.715 17.2705 22.8323C17.2447 22.9497 17.2212 23.0678 17.1931 23.1836L17.1055 23.5317C16.6392 25.3937 15.953 27.1807 15.2129 28.894C14.4697 30.6097 13.6662 32.2503 12.9386 33.8518C12.8479 34.0521 12.7579 34.2516 12.6679 34.4503C12.5811 34.6498 12.4942 34.8485 12.4074 35.0465C12.3182 35.2444 12.2384 35.4416 12.1539 35.6387C12.1125 35.7373 12.071 35.8359 12.0295 35.9337C11.9904 36.0322 11.9505 36.1308 11.9114 36.2286C11.593 37.0133 11.3027 37.791 11.0578 38.56C10.8137 39.3299 10.6017 40.0903 10.4437 40.8398C10.2903 41.5901 10.1785 42.3271 10.1182 43.0492C10.1049 43.2291 10.0995 43.4083 10.0885 43.5867L10.0815 43.7205L10.0775 43.787L10.076 43.8206C10.076 43.83 10.0736 43.794 10.0744 43.8183V43.8362C10.0736 43.9325 10.0728 44.0287 10.0721 44.1242L10.0713 44.1953L10.0721 44.2579L10.0744 44.3792C10.0768 44.4614 10.0744 44.5388 10.0807 44.6256C10.0854 44.7109 10.0893 44.7954 10.094 44.8799C10.0987 44.9644 10.1073 45.0489 10.1128 45.1326C10.166 45.8047 10.2841 46.4532 10.4327 47.069C10.4875 47.2943 10.5493 47.5149 10.6174 47.73C14.8836 50.8446 20.1402 52.6847 25.8272 52.6847C29.0067 52.6847 32.0516 52.1089 34.865 51.0574C35.9368 52.4242 37.4037 53 37.4037 53C37.4037 53 37.3513 52.9624 37.2496 52.8889C37.1995 52.8545 37.1401 52.8044 37.0673 52.7442ZM28.5678 36.2067C28.5185 33.0264 31.5298 32.9521 31.5298 32.9521C31.5298 32.9521 31.3209 29.9471 34.4918 29.6975C37.6619 29.4479 39.0889 34.8407 38.1094 38.9395C34.1202 40.3 28.6171 39.387 28.5678 36.2067Z" fill="#4E31AA"/>
<path d="M29.5582 34.4856C29.5582 34.4856 27.9575 37.5 31.4899 38.5147C31.4899 38.5147 29.1334 37.2019 29.5582 34.4856Z" fill="#4E31AA"/>
<path d="M25.8288 1.02954C24.3196 1.02954 22.8417 1.16098 21.4037 1.40898C21.4045 1.41133 21.4053 1.4129 21.4061 1.41524C21.421 1.4528 21.4366 1.49035 21.4577 1.52712C21.4961 1.60066 21.5367 1.67733 21.5782 1.75713C21.5978 1.79703 21.6212 1.83615 21.6471 1.87449C21.6713 1.9136 21.6963 1.95351 21.7222 1.99341C21.7472 2.03331 21.7722 2.07399 21.7981 2.11545C21.8254 2.15614 21.8567 2.19525 21.8857 2.23593C21.9154 2.27662 21.9459 2.3173 21.9764 2.35876C22.0062 2.40023 22.0375 2.44248 22.0734 2.48238C22.3402 2.81175 22.6735 3.14425 23.0717 3.45954C23.1703 3.53934 23.2783 3.61288 23.3823 3.6919C23.4887 3.76935 23.603 3.84133 23.7148 3.91879C23.8298 3.99233 23.9503 4.06196 24.07 4.1355C24.1295 4.16758 24.1905 4.19965 24.2507 4.23251C24.2813 4.24894 24.311 4.26537 24.3415 4.2818C24.3712 4.29823 24.4017 4.31466 24.4385 4.33187C24.5089 4.36629 24.5801 4.40072 24.6513 4.43592L24.7053 4.46252L24.7319 4.47582L24.7452 4.48208C24.7436 4.48052 24.7679 4.4946 24.7452 4.48052C24.7796 4.49616 24.8148 4.51103 24.85 4.52668C24.9893 4.58927 25.1301 4.65264 25.278 4.71131C25.569 4.83258 25.878 4.94524 26.198 5.05868C26.5211 5.16899 26.8521 5.284 27.1995 5.39822C27.5468 5.51401 27.9051 5.63058 28.2775 5.75811C28.6499 5.88328 29.0309 6.02567 29.4237 6.18527C29.6201 6.26272 29.818 6.35113 30.0183 6.43798C30.2248 6.53577 30.4478 6.63982 30.6207 6.73058L30.76 6.80099L30.9305 6.89487C31.0353 6.95276 31.1378 7.01536 31.2403 7.07873C31.4461 7.20547 31.6464 7.34395 31.8451 7.48946C32.2417 7.78207 32.622 8.11535 32.9779 8.49636C33.3355 8.8758 33.6656 9.30609 33.9488 9.7935C34.2336 10.2793 34.4644 10.8325 34.6005 11.438C34.6678 11.7408 34.7124 12.0561 34.7234 12.3776C34.7265 12.4582 34.7249 12.5388 34.7257 12.6202V12.6812L34.7226 12.7508L34.7148 12.8893L34.7101 12.9589L34.7054 13.0145L34.6968 13.1021L34.6929 13.1459L34.6905 13.1678C34.6874 13.1921 34.6944 13.1436 34.6827 13.2281L34.6631 13.347C34.5614 13.9869 34.3564 14.5596 34.1483 15.0478C33.941 15.5391 33.7306 15.9773 33.5796 16.359L33.5232 16.5014L33.4755 16.6368C33.4403 16.7291 33.4215 16.8105 33.3949 16.895C33.3816 16.9372 33.3769 16.9748 33.3668 17.0147L33.3527 17.0733C33.3503 17.0827 33.3472 17.0937 33.3464 17.1015L33.3449 17.1187C33.3425 17.1414 33.3394 17.1633 33.3339 17.1852L33.3292 17.2016L33.3245 17.247L33.3159 17.3393C33.2885 17.6163 33.33 17.8698 33.427 18.1436C33.5232 18.4166 33.6875 18.7108 33.9144 19.0112C34.1429 19.3117 34.4253 19.6191 34.7453 19.9211C35.0676 20.2239 35.4212 20.5259 35.7976 20.8318C35.9861 20.9851 36.1793 21.1385 36.3781 21.2957L36.6855 21.5422C36.7888 21.6267 36.8936 21.7088 36.9961 21.7956C37.4092 22.1368 37.8168 22.4904 38.2174 22.855C39.0138 23.5919 39.7844 24.3751 40.4854 25.2333C40.6638 25.4446 40.832 25.666 41.0018 25.885C41.0855 25.9961 41.1653 26.1103 41.2474 26.2222L41.3695 26.3912L41.4869 26.5641L41.72 26.9107L41.943 27.2659C41.9797 27.3261 42.0165 27.3825 42.0541 27.445L42.1644 27.6359L42.2739 27.8276L42.3279 27.9231L42.3545 27.9708L42.3764 28.013L42.5509 28.3479L42.5947 28.4316L42.6056 28.4527C42.6377 28.5137 42.6213 28.4832 42.6314 28.5028L42.6541 28.5505L42.7449 28.7414C42.8036 28.8697 42.8685 28.9949 42.9225 29.1248C42.9772 29.2546 43.0312 29.3837 43.086 29.5136C43.2917 30.0362 43.4756 30.5643 43.6164 31.1033C43.6931 31.3709 43.7479 31.644 43.8073 31.9146C43.8378 32.0492 43.8566 32.1877 43.8809 32.3238C43.9028 32.4607 43.9302 32.5953 43.9442 32.7338C43.9607 32.8715 43.9771 33.0084 43.9935 33.1453C44.0107 33.2814 44.0146 33.4207 44.0256 33.5576C44.0491 33.8314 44.0491 34.1076 44.053 34.3814L44.0538 34.4839L44.0499 34.5872L44.042 34.7929L44.0334 34.9979C44.0311 35.066 44.0272 35.134 44.0193 35.2021C43.9927 35.4752 43.9708 35.7459 43.9231 36.0142C43.9004 36.1488 43.884 36.2826 43.8558 36.4156C43.8269 36.5478 43.7979 36.6808 43.769 36.8122C43.7526 36.8795 43.7424 36.9413 43.7213 37.0117L43.6626 37.2198C43.6227 37.3567 43.5828 37.4991 43.5421 37.629C43.5022 37.7377 43.4631 37.8457 43.424 37.9537L43.3653 38.1156L43.3434 38.1774L43.334 38.2001L43.3144 38.2455L43.2753 38.3362C43.2229 38.4567 43.1705 38.5764 43.1189 38.6953C43.0657 38.8135 43.0046 38.9261 42.9483 39.0411C42.7206 39.5004 42.4593 39.9197 42.1964 40.3219C41.9265 40.7162 41.6535 41.094 41.3734 41.443C41.3038 41.5306 41.2342 41.6182 41.1653 41.7051C41.0957 41.7896 41.026 41.8741 40.9564 41.9578C40.8187 42.1275 40.6779 42.2871 40.5402 42.4475C39.9871 43.0844 39.4621 43.6758 38.9817 44.2446C38.8644 44.3862 38.7423 44.5294 38.6328 44.6663C38.5781 44.7344 38.5241 44.8024 38.4701 44.8697C38.4161 44.9378 38.3629 45.0019 38.3074 45.0786C38.2526 45.1529 38.1978 45.2265 38.1438 45.2992L38.0625 45.4087L38.0421 45.4361C38.0367 45.4432 38.05 45.422 38.0406 45.4369L38.032 45.4494L37.9968 45.4995C37.9029 45.6333 37.8106 45.7671 37.7237 45.9024C37.5508 46.1739 37.3943 46.4485 37.2574 46.7247C37.1213 47.0008 37.0016 47.2762 36.8952 47.5469C36.7896 47.8184 36.702 48.0875 36.6315 48.3504C36.5619 48.6133 36.5032 48.8707 36.4641 49.1202C36.4234 49.3698 36.3976 49.6124 36.389 49.8439C36.3796 50.0442 36.382 50.2367 36.3921 50.4213C45.3877 46.3828 51.6544 37.3489 51.6544 26.8497C51.6567 12.5928 40.0927 1.02954 25.8288 1.02954Z" fill="#4E31AA"/>
</svg>
