<svg width="35" height="35" viewBox="0 0 35 35" fill="none" xmlns="http://www.w3.org/2000/svg">
<g clip-path="url(#clip0_60_128)">
<g opacity="0.99" filter="url(#filter0_d_60_128)">
<rect width="35" height="35" rx="17.5" fill="#F8F7FF"/>
<rect x="0.3" y="0.3" width="34.4" height="34.4" rx="17.2" stroke="#4E31AA" stroke-width="0.6"/>
<path d="M18 14.4062C19.9688 14.4062 21.5938 16.0312 21.5938 18C21.5938 20 19.9688 21.5938 18 21.5938C16 21.5938 14.4062 20 14.4062 18C14.4062 16.0312 16 14.4062 18 14.4062ZM18 20.3438C19.2812 20.3438 20.3125 19.3125 20.3125 18C20.3125 16.7188 19.2812 15.6875 18 15.6875C16.6875 15.6875 15.6562 16.7188 15.6562 18C15.6562 19.3125 16.7188 20.3438 18 20.3438ZM22.5625 14.2812C22.5625 14.75 22.1875 15.125 21.7188 15.125C21.25 15.125 20.875 14.75 20.875 14.2812C20.875 13.8125 21.25 13.4375 21.7188 13.4375C22.1875 13.4375 22.5625 13.8125 22.5625 14.2812ZM24.9375 15.125C25 16.2812 25 19.75 24.9375 20.9062C24.875 22.0312 24.625 23 23.8125 23.8438C23 24.6562 22 24.9062 20.875 24.9688C19.7188 25.0312 16.25 25.0312 15.0938 24.9688C13.9688 24.9062 13 24.6562 12.1562 23.8438C11.3438 23 11.0938 22.0312 11.0312 20.9062C10.9688 19.75 10.9688 16.2812 11.0312 15.125C11.0938 14 11.3438 13 12.1562 12.1875C13 11.375 13.9688 11.125 15.0938 11.0625C16.25 11 19.7188 11 20.875 11.0625C22 11.125 23 11.375 23.8125 12.1875C24.625 13 24.875 14 24.9375 15.125ZM23.4375 22.125C23.8125 21.2188 23.7188 19.0312 23.7188 18C23.7188 17 23.8125 14.8125 23.4375 13.875C23.1875 13.2812 22.7188 12.7812 22.125 12.5625C21.1875 12.1875 19 12.2812 18 12.2812C16.9688 12.2812 14.7812 12.1875 13.875 12.5625C13.25 12.8125 12.7812 13.2812 12.5312 13.875C12.1562 14.8125 12.25 17 12.25 18C12.25 19.0312 12.1562 21.2188 12.5312 22.125C12.7812 22.75 13.25 23.2188 13.875 23.4688C14.7812 23.8438 16.9688 23.75 18 23.75C19 23.75 21.1875 23.8438 22.125 23.4688C22.7188 23.2188 23.2188 22.75 23.4375 22.125Z" fill="#4E31AA"/>
</g>
</g>
<defs>
<filter id="filter0_d_60_128" x="-10" y="-5" width="55" height="55" filterUnits="userSpaceOnUse" color-interpolation-filters="sRGB">
<feFlood flood-opacity="0" result="BackgroundImageFix"/>
<feColorMatrix in="SourceAlpha" type="matrix" values="0 0 0 0 0 0 0 0 0 0 0 0 0 0 0 0 0 0 127 0" result="hardAlpha"/>
<feMorphology radius="5" operator="erode" in="SourceAlpha" result="effect1_dropShadow_60_128"/>
<feOffset dy="5"/>
<feGaussianBlur stdDeviation="7.5"/>
<feComposite in2="hardAlpha" operator="out"/>
<feColorMatrix type="matrix" values="0 0 0 0 0 0 0 0 0 0 0 0 0 0 0 0 0 0 0.1 0"/>
<feBlend mode="normal" in2="BackgroundImageFix" result="effect1_dropShadow_60_128"/>
<feBlend mode="normal" in="SourceGraphic" in2="effect1_dropShadow_60_128" result="shape"/>
</filter>
<clipPath id="clip0_60_128">
<rect width="35" height="35" fill="white"/>
</clipPath>
</defs>
</svg>
