<svg width="35" height="35" viewBox="0 0 35 35" fill="none" xmlns="http://www.w3.org/2000/svg">
<g clip-path="url(#clip0_60_122)">
<g filter="url(#filter0_d_60_122)">
<rect width="35" height="35" rx="17.5" fill="#4E31AA"/>
<path d="M24.0437 14.75C24.0437 14.9062 24.0437 15.0312 24.0437 15.1875C24.0437 19.5312 20.7625 24.5 14.7312 24.5C12.8562 24.5 11.1375 23.9688 9.7 23.0312C9.95 23.0625 10.2 23.0938 10.4812 23.0938C12.0125 23.0938 13.4187 22.5625 14.5437 21.6875C13.1062 21.6562 11.8875 20.7188 11.4812 19.4062C11.7 19.4375 11.8875 19.4688 12.1062 19.4688C12.3875 19.4688 12.7 19.4062 12.95 19.3438C11.45 19.0312 10.325 17.7188 10.325 16.125V16.0938C10.7625 16.3438 11.2937 16.4688 11.825 16.5C10.9187 15.9062 10.3562 14.9062 10.3562 13.7812C10.3562 13.1562 10.5125 12.5938 10.7937 12.125C12.4187 14.0938 14.8562 15.4062 17.575 15.5625C17.5125 15.3125 17.4812 15.0625 17.4812 14.8125C17.4812 13 18.95 11.5312 20.7625 11.5312C21.7 11.5312 22.5437 11.9062 23.1687 12.5625C23.8875 12.4062 24.6062 12.125 25.2312 11.75C24.9812 12.5312 24.4812 13.1562 23.7937 13.5625C24.45 13.5 25.1062 13.3125 25.6687 13.0625C25.2312 13.7188 24.6687 14.2812 24.0437 14.75Z" fill="white"/>
</g>
</g>
<defs>
<filter id="filter0_d_60_122" x="-10" y="-5" width="55" height="55" filterUnits="userSpaceOnUse" color-interpolation-filters="sRGB">
<feFlood flood-opacity="0" result="BackgroundImageFix"/>
<feColorMatrix in="SourceAlpha" type="matrix" values="0 0 0 0 0 0 0 0 0 0 0 0 0 0 0 0 0 0 127 0" result="hardAlpha"/>
<feMorphology radius="5" operator="erode" in="SourceAlpha" result="effect1_dropShadow_60_122"/>
<feOffset dy="5"/>
<feGaussianBlur stdDeviation="7.5"/>
<feComposite in2="hardAlpha" operator="out"/>
<feColorMatrix type="matrix" values="0 0 0 0 0 0 0 0 0 0 0 0 0 0 0 0 0 0 0.1 0"/>
<feBlend mode="normal" in2="BackgroundImageFix" result="effect1_dropShadow_60_122"/>
<feBlend mode="normal" in="SourceGraphic" in2="effect1_dropShadow_60_122" result="shape"/>
</filter>
<clipPath id="clip0_60_122">
<rect width="35" height="35" fill="white"/>
</clipPath>
</defs>
</svg>
