<svg width="23" height="23" viewBox="0 0 23 23" fill="none" xmlns="http://www.w3.org/2000/svg">
<g clip-path="url(#clip0_101_379)">
<path d="M18.4177 9.89401C18.4062 9.9873 18.4103 10.1005 18.4128 10.1699C18.413 10.1757 18.4132 10.1812 18.4134 10.1863L18.4134 10.1863C18.419 10.3516 18.4187 10.4964 18.376 10.6082C18.3583 10.6547 18.3372 10.6829 18.3134 10.7027C18.2904 10.7217 18.2414 10.7524 18.1367 10.7683L18.1365 10.7683C18.0865 10.7759 18.0426 10.7791 18.0059 10.7791H18.0059C17.8917 10.7791 17.8378 10.7536 17.8134 10.7379C17.7878 10.7214 17.762 10.6945 17.737 10.644C17.6774 10.5232 17.6618 10.3576 17.6508 10.1761L17.6508 10.176L17.6501 10.164C17.6452 10.0834 17.6388 9.97801 17.6234 9.88527L17.6234 9.88523C17.3848 8.44737 17.0089 7.38325 16.2605 6.60251C15.5136 5.82323 14.4566 5.39019 13.0098 5.06688C13.0097 5.06686 13.0096 5.06684 13.0095 5.06682L12.909 5.51652L18.4177 9.89401ZM18.4177 9.89401C18.4361 7.16183 16.0871 4.60296 13.1426 4.24911C13.0694 4.24041 12.9923 4.22764 12.924 4.21633L12.9183 4.21538L12.9182 4.21538C12.7562 4.18852 12.6315 4.16904 12.5124 4.16904C12.3109 4.16904 12.2355 4.23322 12.1997 4.2739C12.1489 4.33171 12.1164 4.41858 12.101 4.51042L12.101 4.51043C12.072 4.68269 12.1065 4.76968 12.1431 4.81944L18.4177 9.89401ZM18.4193 9.88191L18.4189 9.88486L18.4193 9.88191Z" stroke="#4E31AA" stroke-width="0.921577"/>
<path d="M12.6282 2.25973L12.6285 2.25977C15.0143 2.62667 16.8241 3.38554 18.1116 4.71201C19.3989 6.03824 20.1076 7.8738 20.4115 10.2773L20.4115 10.2774C20.4249 10.383 20.4268 10.5025 20.4282 10.596L20.4284 10.6079C20.4316 10.8057 20.4404 10.9933 20.5024 11.1326C20.5287 11.1916 20.558 11.2252 20.5894 11.2466C20.6195 11.2672 20.6826 11.2978 20.8125 11.3006L20.833 11.3008C20.9918 11.3004 21.0646 11.2555 21.1056 11.2126L21.1056 11.2126C21.1461 11.1703 21.1785 11.1056 21.1955 10.9916C21.2135 10.8706 21.2089 10.7363 21.2014 10.5698L21.2013 10.5696L21.2009 10.5595C21.1977 10.4878 21.1939 10.4039 21.1949 10.3271L12.6282 2.25973ZM12.6282 2.25973C12.5428 2.24664 12.4467 2.23972 12.3692 2.23413M12.6282 2.25973L12.3692 2.23413M12.4444 1.47081L12.4441 1.4708C12.3661 1.46548 12.2961 1.46079 12.2277 1.46079C11.9698 1.46079 11.8865 1.54417 11.8507 1.59112C11.7962 1.66274 11.7666 1.7732 11.7597 1.89324L12.4444 1.47081ZM12.4444 1.47081C12.4487 1.4711 12.4531 1.47141 12.4576 1.47172C12.512 1.47542 12.5826 1.48023 12.6446 1.48023C12.6856 1.48023 12.7217 1.47821 12.7544 1.47414M12.4444 1.47081L12.7544 1.47414M12.3692 2.23413C12.3667 2.23395 12.3642 2.23377 12.3617 2.23359M12.3692 2.23413L12.3617 2.23359M12.3617 2.23359L12.3286 2.69319M12.3617 2.23359L12.3286 2.69319M12.3286 2.69319L12.3621 2.23362M12.3286 2.69319L12.3621 2.23362M12.7544 1.47414C17.2976 1.63363 21.2509 5.7783 21.1949 10.3269L12.7544 1.47414ZM12.3621 2.23362C12.1735 2.21986 11.9984 2.20152 11.8742 2.13922M12.3621 2.23362L11.8742 2.13922M11.8742 2.13922C11.8222 2.11318 11.7992 2.08847 11.7871 2.06857M11.8742 2.13922L11.7871 2.06857M11.7871 2.06857C11.7762 2.05074 11.7534 2.00329 11.7597 1.8933L11.7871 2.06857Z" stroke="#4E31AA" stroke-width="0.921577"/>
<path d="M19.7287 16.4043C19.6296 16.3286 19.5272 16.2503 19.4313 16.1731C18.9225 15.7637 18.3813 15.3863 17.8579 15.0214C17.7493 14.9457 17.6407 14.87 17.5324 14.794C16.862 14.3231 16.2592 14.0942 15.6897 14.0942C14.9227 14.0942 14.2539 14.518 13.7019 15.3538C13.4574 15.7243 13.1607 15.9044 12.7951 15.9044C12.5789 15.9044 12.3332 15.8427 12.065 15.721C9.9009 14.7396 8.35556 13.2349 7.47186 11.2487C7.04467 10.2888 7.18316 9.66127 7.93497 9.15058C8.36189 8.86082 9.15654 8.32138 9.10025 7.28839C9.03651 6.11532 6.44822 2.58572 5.35768 2.18484C4.89596 2.01504 4.41084 2.01346 3.91319 2.18088C2.65951 2.60233 1.75986 3.34248 1.31125 4.32116C0.87774 5.26682 0.897317 6.3772 1.36787 7.53227C2.7282 10.8718 4.64074 13.7835 7.05258 16.1862C9.41334 18.5383 12.3149 20.465 15.6766 21.9125C15.9796 22.0429 16.2975 22.114 16.5296 22.1659C16.6087 22.1837 16.6769 22.1988 16.7267 22.2125C16.7541 22.2199 16.7823 22.2239 16.8105 22.2242L16.8371 22.2243C16.8371 22.2243 16.8371 22.2243 16.8372 22.2243C18.4184 22.2243 20.3169 20.7795 20.9 19.1323C21.4108 17.69 20.4781 16.9771 19.7287 16.4043Z" stroke="#4E31AA" stroke-width="1.6756"/>
<path d="M15.454 10.9097C15.4209 10.9137 15.3877 10.9156 15.3553 10.9156C14.9163 10.9156 14.5744 10.5611 14.5238 10.0533C14.4148 8.96443 13.8701 8.37793 12.8095 8.20774L15.454 10.9097ZM15.454 10.9097C15.9819 10.8469 16.2379 10.459 16.2147 9.75684L15.454 10.9097ZM12.8828 7.75282C13.4822 7.84905 13.9894 8.07225 14.3611 8.47243C14.732 8.87172 14.9212 9.39696 14.9823 10.0074L14.9823 10.0076C15.0152 10.3377 15.2072 10.4548 15.3553 10.4548C15.3698 10.4548 15.3844 10.4539 15.3983 10.4523L15.3995 10.4521C15.5511 10.4341 15.6155 10.3811 15.6564 10.3192C15.7102 10.2377 15.7641 10.0741 15.7542 9.77202L15.7539 9.76178L15.754 9.75154C15.7606 9.17231 15.4494 8.45262 14.8591 7.85285L12.8828 7.75282ZM12.8828 7.75282C12.7488 7.73122 12.6434 7.70563 12.5618 7.66871C12.4862 7.63452 12.4471 7.59799 12.4231 7.55777L12.8828 7.75282ZM12.4304 7.2526L12.4304 7.25274C12.3691 7.43033 12.3969 7.51407 12.423 7.55775L12.4304 7.2526ZM12.4304 7.2526C12.4778 7.11503 12.5542 7.05873 12.6475 7.02313M12.4304 7.2526L12.6475 7.02313M12.6475 7.02313C12.7637 6.97881 12.8971 6.97212 13.0379 6.96855M12.6475 7.02313L13.0379 6.96855M13.0379 6.96855C13.5922 6.95525 14.2652 7.24972 14.8591 7.8528L13.0379 6.96855Z" stroke="#4E31AA" stroke-width="0.921577"/>
</g>
<defs>
<clipPath id="clip0_101_379">
<rect width="22.3413" height="22.3413" fill="white" transform="translate(0.177174 0.329346)"/>
</clipPath>
</defs>
</svg>
