<svg width="20" height="19" viewBox="0 0 20 19" fill="none" xmlns="http://www.w3.org/2000/svg">
<path d="M0 7.04359C0.172251 6.44071 0.595391 6.19356 1.19827 6.18607C1.32184 6.18607 1.44541 6.16361 1.56899 6.15237C3.13423 6.01008 4.69947 5.86778 6.26471 5.73298C6.39203 5.72174 6.45569 5.67306 6.50811 5.55324C7.19337 3.93557 7.88987 2.32539 8.57513 0.707729C8.76236 0.269611 9.06567 0.0037446 9.54872 0C10.0318 0 10.3388 0.265866 10.5261 0.703984C11.2113 2.31416 11.9003 3.92059 12.5856 5.53451C12.6418 5.66558 12.7092 5.72549 12.8515 5.73672C14.5665 5.88651 16.2815 6.04004 17.9928 6.19731C18.165 6.21229 18.3448 6.2385 18.4983 6.3059C19.1836 6.60172 19.3109 7.49668 18.738 8.0022C17.7232 8.90091 16.7009 9.79212 15.6824 10.6833C15.3641 10.9604 15.0495 11.245 14.7275 11.5146C14.6152 11.6083 14.5927 11.6906 14.6264 11.8329C15.0196 13.5442 15.4053 15.2592 15.7985 16.9705C15.9033 17.4274 15.8059 17.8168 15.424 18.0976C15.042 18.3747 14.6376 18.3523 14.237 18.1126C12.7279 17.2102 11.2188 16.3115 9.71348 15.4053C9.5974 15.3341 9.51502 15.3341 9.39519 15.4053C7.88987 16.3115 6.38079 17.2139 4.87172 18.1126C4.3662 18.4122 3.83072 18.341 3.49371 17.9291C3.27278 17.6595 3.22035 17.3487 3.29525 17.0154C3.68094 15.3079 4.06663 13.6004 4.46356 11.8966C4.50849 11.7094 4.47105 11.6008 4.32501 11.4734C3.06683 10.3763 1.81987 9.27162 0.56169 8.1782C0.314546 7.96476 0.0973595 7.73634 0 7.4143C0 7.29073 0 7.16716 0 7.04359Z" fill="#4E31AA"/>
</svg>
