<svg width="21" height="19" viewBox="0 0 21 19" fill="none" xmlns="http://www.w3.org/2000/svg">
<path d="M0.943161 7.04359C1.11541 6.44071 1.53855 6.19356 2.14143 6.18607C2.265 6.18607 2.38858 6.16361 2.51215 6.15237C4.07739 6.01008 5.64263 5.86778 7.20787 5.73298C7.33519 5.72174 7.39885 5.67306 7.45127 5.55324C8.13653 3.93557 8.83303 2.32539 9.51829 0.707729C9.70552 0.269611 10.0088 0.0037446 10.4919 0C10.9749 0 11.282 0.265866 11.4692 0.703984C12.1545 2.31416 12.8435 3.92059 13.5288 5.53451C13.5849 5.66558 13.6523 5.72549 13.7946 5.73672C15.5096 5.88651 17.2247 6.04004 18.936 6.19731C19.1082 6.21229 19.2879 6.2385 19.4415 6.3059C20.1267 6.60172 20.254 7.49668 19.6811 8.0022C18.6663 8.90091 17.6441 9.79212 16.6255 10.6833C16.3072 10.9604 15.9927 11.245 15.6707 11.5146C15.5583 11.6083 15.5359 11.6906 15.5696 11.8329C15.9627 13.5442 16.3484 15.2592 16.7416 16.9705C16.8465 17.4274 16.7491 17.8168 16.3672 18.0976C15.9852 18.3747 15.5808 18.3523 15.1801 18.1126C13.671 17.2102 12.162 16.3115 10.6566 15.4053C10.5406 15.3341 10.4582 15.3341 10.3384 15.4053C8.83303 16.3115 7.32395 17.2139 5.81488 18.1126C5.30936 18.4122 4.77388 18.341 4.43687 17.9291C4.21594 17.6595 4.16351 17.3487 4.23841 17.0154C4.6241 15.3079 5.00979 13.6004 5.40672 11.8966C5.45166 11.7094 5.41421 11.6008 5.26817 11.4734C4.00999 10.3763 2.76304 9.27162 1.50485 8.1782C1.25771 7.96476 1.04052 7.73634 0.943161 7.4143C0.943161 7.29073 0.943161 7.16716 0.943161 7.04359Z" fill="#4E31AA"/>
</svg>
