<svg width="21" height="19" viewBox="0 0 21 19" fill="none" xmlns="http://www.w3.org/2000/svg">
<path d="M0.981037 7.04359C1.15329 6.44071 1.57643 6.19356 2.17931 6.18607C2.30288 6.18607 2.42645 6.16361 2.55002 6.15237C4.11527 6.01008 5.68051 5.86778 7.24575 5.73298C7.37306 5.72174 7.43672 5.67306 7.48915 5.55324C8.17441 3.93557 8.8709 2.32539 9.55616 0.707729C9.74339 0.269611 10.0467 0.0037446 10.5298 0C11.0128 0 11.3199 0.265866 11.5071 0.703984C12.1924 2.31416 12.8814 3.92059 13.5666 5.53451C13.6228 5.66558 13.6902 5.72549 13.8325 5.73672C15.5475 5.88651 17.2625 6.04004 18.9738 6.19731C19.1461 6.21229 19.3258 6.2385 19.4793 6.3059C20.1646 6.60172 20.2919 7.49668 19.719 8.0022C18.7042 8.90091 17.6819 9.79212 16.6634 10.6833C16.3451 10.9604 16.0306 11.245 15.7085 11.5146C15.5962 11.6083 15.5737 11.6906 15.6074 11.8329C16.0006 13.5442 16.3863 15.2592 16.7795 16.9705C16.8843 17.4274 16.787 17.8168 16.405 18.0976C16.0231 18.3747 15.6187 18.3523 15.218 18.1126C13.7089 17.2102 12.1998 16.3115 10.6945 15.4053C10.5784 15.3341 10.4961 15.3341 10.3762 15.4053C8.8709 16.3115 7.36183 17.2139 5.85276 18.1126C5.34724 18.4122 4.81176 18.341 4.47475 17.9291C4.25382 17.6595 4.20139 17.3487 4.27628 17.0154C4.66198 15.3079 5.04767 13.6004 5.4446 11.8966C5.48953 11.7094 5.45209 11.6008 5.30605 11.4734C4.04786 10.3763 2.80091 9.27162 1.54273 8.1782C1.29558 7.96476 1.0784 7.73634 0.981037 7.4143C0.981037 7.29073 0.981037 7.16716 0.981037 7.04359Z" fill="#4E31AA"/>
</svg>
