<svg width="21" height="19" viewBox="0 0 21 19" fill="none" xmlns="http://www.w3.org/2000/svg">
<path d="M0.924217 7.04359C1.09647 6.44071 1.51961 6.19356 2.12249 6.18608C2.24606 6.18608 2.36963 6.16361 2.4932 6.15237C4.05844 6.01008 5.62369 5.86778 7.18893 5.73298C7.31624 5.72174 7.3799 5.67307 7.43233 5.55324C8.11759 3.93557 8.81408 2.32539 9.49934 0.707729C9.68657 0.269611 9.98989 0.0037446 10.4729 0C10.956 0 11.263 0.265866 11.4503 0.703984C12.1355 2.31416 12.8245 3.92059 13.5098 5.53452C13.566 5.66558 13.6334 5.72549 13.7757 5.73672C15.4907 5.88651 17.2057 6.04004 18.917 6.19731C19.0893 6.21229 19.269 6.2385 19.4225 6.3059C20.1078 6.60173 20.2351 7.49668 19.6622 8.00221C18.6474 8.90091 17.6251 9.79212 16.6066 10.6833C16.2883 10.9604 15.9738 11.245 15.6517 11.5146C15.5394 11.6083 15.5169 11.6906 15.5506 11.8329C15.9438 13.5442 16.3295 15.2592 16.7227 16.9705C16.8275 17.4274 16.7302 17.8168 16.3482 18.0976C15.9663 18.3747 15.5618 18.3523 15.1612 18.1126C13.6521 17.2102 12.143 16.3115 10.6377 15.4053C10.5216 15.3341 10.4392 15.3341 10.3194 15.4053C8.81408 16.3115 7.30501 17.2139 5.79594 18.1126C5.29042 18.4122 4.75494 18.341 4.41793 17.9291C4.197 17.6595 4.14457 17.3487 4.21946 17.0155C4.60516 15.3079 4.99085 13.6004 5.38778 11.8966C5.43271 11.7094 5.39527 11.6008 5.24923 11.4734C3.99104 10.3763 2.74409 9.27162 1.48591 8.1782C1.23876 7.96476 1.02158 7.73634 0.924217 7.4143C0.924217 7.29073 0.924217 7.16716 0.924217 7.04359ZM15.4757 16.9069C15.4645 16.8432 15.457 16.8132 15.4495 16.7833C15.0788 15.1506 14.7118 13.5143 14.3374 11.8816C14.2363 11.4323 14.3523 11.0653 14.7006 10.762C15.8202 9.78463 16.9361 8.80355 18.052 7.82621C18.213 7.68391 18.374 7.54162 18.5538 7.3806C18.4864 7.36562 18.4527 7.35439 18.419 7.35064C16.7676 7.20086 15.1162 7.04733 13.4649 6.90129C12.9856 6.8601 12.6748 6.62419 12.4875 6.18608C11.8547 4.69573 11.2181 3.20538 10.5815 1.71503C10.5516 1.64388 10.5179 1.57648 10.4692 1.47163C10.3344 1.78617 10.2146 2.05953 10.0985 2.33288C9.54802 3.62103 8.99382 4.91291 8.44711 6.20105C8.27861 6.59424 8.00151 6.84512 7.57088 6.88631C6.17789 7.01738 4.78864 7.14095 3.39565 7.26826C3.06987 7.29822 2.74409 7.32818 2.36589 7.36562C2.44827 7.43677 2.4932 7.47796 2.53814 7.51541C3.77011 8.5976 5.00583 9.67978 6.24154 10.7582C6.58979 11.0615 6.70587 11.4285 6.60477 11.8779C6.29022 13.2521 5.97942 14.6264 5.66862 16.0007C5.60122 16.2927 5.54131 16.5848 5.46641 16.9069C5.55628 16.8544 5.60871 16.8245 5.66113 16.7908C7.05787 15.9557 8.4546 15.1244 9.84759 14.2819C10.2707 14.0273 10.6714 14.0235 11.0908 14.2819C11.7798 14.705 12.4763 15.1132 13.169 15.5288C13.9292 15.9819 14.6856 16.435 15.4757 16.9069Z" fill="#4E31AA"/>
</svg>
