<svg width="21" height="19" viewBox="0 0 21 19" fill="none" xmlns="http://www.w3.org/2000/svg">
<path d="M0.96212 7.04359C1.13437 6.44071 1.55751 6.19356 2.16039 6.18607C2.28396 6.18607 2.40753 6.16361 2.53111 6.15237C4.09635 6.01008 5.66159 5.86778 7.22683 5.73298C7.35415 5.72174 7.41781 5.67306 7.47023 5.55324C8.15549 3.93557 8.85199 2.32539 9.53725 0.707729C9.72448 0.269611 10.0278 0.0037446 10.5108 0C10.9939 0 11.301 0.265866 11.4882 0.703984C12.1734 2.31416 12.8625 3.92059 13.5477 5.53451C13.6039 5.66558 13.6713 5.72549 13.8136 5.73672C15.5286 5.88651 17.2436 6.04004 18.9549 6.19731C19.1272 6.21229 19.3069 6.2385 19.4604 6.3059C20.1457 6.60172 20.273 7.49668 19.7001 8.0022C18.6853 8.90091 17.663 9.79212 16.6445 10.6833C16.3262 10.9604 16.0117 11.245 15.6896 11.5146C15.5773 11.6083 15.5548 11.6906 15.5885 11.8329C15.9817 13.5442 16.3674 15.2592 16.7606 16.9705C16.8654 17.4274 16.7681 17.8168 16.3861 18.0976C16.0042 18.3747 15.5998 18.3523 15.1991 18.1126C13.69 17.2102 12.1809 16.3115 10.6756 15.4053C10.5595 15.3341 10.4771 15.3341 10.3573 15.4053C8.85199 16.3115 7.34291 17.2139 5.83384 18.1126C5.32832 18.4122 4.79284 18.341 4.45583 17.9291C4.2349 17.6595 4.18247 17.3487 4.25737 17.0154C4.64306 15.3079 5.02875 13.6004 5.42568 11.8966C5.47061 11.7094 5.43317 11.6008 5.28713 11.4734C4.02895 10.3763 2.78199 9.27162 1.52381 8.1782C1.27667 7.96476 1.05948 7.73634 0.96212 7.4143C0.96212 7.29073 0.96212 7.16716 0.96212 7.04359Z" fill="#4E31AA"/>
</svg>
